<?xml version="1.0" encoding="utf-8"?>
<!-- Generator: Adobe Illustrator 14.0.0, SVG Export Plug-In . SVG Version: 6.00 Build 43363)  -->
<!DOCTYPE svg PUBLIC "-//W3C//DTD SVG 1.0//EN" "http://www.w3.org/TR/2001/REC-SVG-20010904/DTD/svg10.dtd">
<svg version="1.0" xmlns="http://www.w3.org/2000/svg" xmlns:xlink="http://www.w3.org/1999/xlink" x="0px" y="0px"
	 width="628.331px" height="140.5px" viewBox="0 0 628.331 140.5" enable-background="new 0 0 628.331 140.5" xml:space="preserve">
<g id="Title">
	<path fill="#2C3236" d="M6.57,31.803c0-1.566-0.835-2.295-2.295-2.295H0v-8.653h9.906c4.693,0,6.674,1.979,6.674,6.674v35.139
		c0,1.564,0.833,2.293,2.295,2.293h4.273v8.656h-9.905c-4.692,0-6.673-1.982-6.673-6.674V31.803z M6.777,0h9.072v10.53H6.777V0z"/>
	<path fill="#2C3236" d="M34.727,31.804c0-1.566-0.834-2.295-2.294-2.295h-4.276v-8.654h9.697c4.485,0,6.674,1.98,6.674,5.84v1.979
		c0,1.669-0.208,3.025-0.208,3.025h0.208c2.086-4.589,8.343-12.097,19.813-12.097c12.512,0,18.144,6.779,18.144,20.232v22.835
		c0,1.563,0.834,2.292,2.294,2.292h4.275v8.656h-10.01c-4.692,0-6.674-1.982-6.674-6.673V42.126c0-7.402-1.459-13.241-9.906-13.241
		c-8.133,0-14.599,5.317-16.684,12.928c-0.731,2.085-0.939,4.483-0.939,7.093v24.711H34.727V31.804z"/>
	<path fill="#2C3236" d="M100.423,28.987h-6.881v-8.132h7.09V6.36h9.907v14.495h12.616v8.132h-12.616V53.18
		c0,10.531,7.299,11.886,11.157,11.886c1.459,0,2.398-0.208,2.398-0.208v8.967c0,0-1.356,0.208-3.545,0.208
		c-6.673,0-20.126-2.085-20.126-19.708V28.987z"/>
	<path fill="#2C3236" d="M157.152,19.602c14.807,0,22.733,11.054,22.733,24.714c0,1.356-0.314,4.17-0.314,4.17h-38.476
		c0.625,11.263,8.758,17.623,18.144,17.623c9.072,0,15.432-6.152,15.432-6.152l4.379,7.194c0,0-7.82,7.718-20.333,7.718
		c-16.684,0-28.05-11.993-28.05-27.633C130.667,30.448,142.138,19.602,157.152,19.602 M169.458,41.084
		c-0.312-8.759-5.839-13.453-12.409-13.453c-7.716,0-13.972,4.694-15.536,13.453H169.458z"/>
	<path fill="#2C3236" d="M193.342,31.804c0-1.566-0.834-2.295-2.294-2.295h-4.275v-8.654h9.593c4.588,0,6.777,1.877,6.777,6.153
		v3.335c0,2.085-0.208,3.649-0.208,3.649h0.208c2.502-7.716,8.551-13.763,16.684-13.763c1.356,0,2.712,0.208,2.712,0.208v10.012
		c0,0-1.356-0.314-3.024-0.314c-6.465,0-12.41,4.589-14.808,12.407c-0.939,3.025-1.25,6.258-1.25,9.491v21.584h-10.115V31.804z"/>
	<path fill="#2C3236" d="M257.266,40.771h2.293v-0.522c0-9.279-3.441-12.617-11.679-12.617c-2.5,0-8.654,0.626-8.654,4.067v3.025
		h-9.489v-5.216c0-8.653,13.139-9.906,18.246-9.906c17.102,0,21.693,8.969,21.693,20.647v22.42c0,1.563,0.832,2.292,2.293,2.292
		h4.275v8.656h-9.491c-4.69,0-6.568-2.293-6.568-6.047c0-1.774,0.208-3.13,0.208-3.13h-0.208c0,0-4.17,10.429-16.788,10.429
		c-9.072,0-17.936-5.527-17.936-16.06C225.46,41.813,248.401,40.771,257.266,40.771 M245.584,66.736
		c8.55,0,14.079-8.969,14.079-16.788v-1.775h-2.606c-7.614,0-21.377,0.419-21.377,10.115
		C235.681,62.563,238.913,66.736,245.584,66.736"/>
	<path fill="#2C3236" d="M310.449,19.602c6.36,0,18.979,2.609,18.979,11.576v5.423h-9.176v-2.919c0-3.755-5.942-5.424-9.803-5.424
		c-10.322,0-18.038,7.716-18.038,18.873c0,11.992,8.758,18.771,18.559,18.771c9.909,0,16.374-7.3,16.374-7.3l4.381,7.194
		c0,0-7.508,9.074-21.483,9.074c-16.58,0-28.152-11.786-28.152-27.633C282.089,31.699,293.453,19.602,310.449,19.602"/>
	<path fill="#2C3236" d="M343.198,28.987h-6.882v-8.132h7.093V6.36h9.906v14.495h12.611v8.132h-12.611V53.18
		c0,10.531,7.297,11.886,11.154,11.886c1.457,0,2.397-0.208,2.397-0.208v8.967c0,0-1.355,0.208-3.543,0.208
		c-6.677,0-20.126-2.085-20.126-19.708V28.987z"/>
	<path fill="#2C3236" d="M380.009,31.803c0-1.566-0.838-2.295-2.296-2.295h-27.605v-8.653h33.239c4.688,0,6.671,1.979,6.671,6.674
		v35.139c0,1.564,0.832,2.293,2.296,2.293h4.272v8.656h-9.906c-4.688,0-6.671-1.982-6.671-6.674V31.803z M380.214,0h9.073v10.53
		h-9.073V0z"/>
	<path fill="#2C3236" d="M431.416,19.602c15.745,0,28.472,11.575,28.472,27.529c0,16.059-12.727,27.738-28.472,27.738
		c-15.746,0-28.358-11.679-28.358-27.738C403.057,31.177,415.669,19.602,431.416,19.602 M431.416,66.109
		c10.015,0,18.144-7.924,18.144-18.978c0-10.949-8.129-18.768-18.144-18.768c-9.901,0-18.036,7.819-18.036,18.768
		C413.379,58.185,421.514,66.109,431.416,66.109"/>
	<path fill="#2C3236" d="M472.511,31.804c0-1.566-0.838-2.295-2.296-2.295h-4.278v-8.654h9.701c4.483,0,6.671,1.98,6.671,5.84v1.979
		c0,1.669-0.205,3.025-0.205,3.025h0.205c2.085-4.589,8.346-12.097,19.813-12.097c12.516,0,18.144,6.779,18.144,20.232v22.835
		c0,1.563,0.838,2.292,2.296,2.292h36.356v8.656h-42.094c-4.693,0-6.67-1.982-6.67-6.673V42.126c0-7.402-1.464-13.241-9.906-13.241
		c-8.135,0-14.601,5.317-16.686,12.928c-0.729,2.085-0.939,4.483-0.939,7.093v24.711h-10.111V31.804z"/>
</g>
<g id="Accent">
	<path fill="#F26738" d="M558.302,64.956h9.194v-30.99c0-1.888,0.079-3.774,0.079-3.774h-0.159c0,0-0.627,1.339-2.438,3.145
		l-4.482,4.249l-5.977-6.295l13.997-13.446h8.893v47.111h9.45v8.73h-28.557V64.956z"/>
	<path fill="#F26738" d="M584.991,53.078l24.068-35.234h12.037v33.032h7.234v8.417h-7.234v14.393h-9.992V59.293h-26.113V53.078z
		 M611.104,50.876V33.573c0-2.755,0.393-5.822,0.393-5.822h-0.153c0,0-1.259,2.991-2.752,5.115L595.689,50.72v0.156H611.104z"/>
	<path fill="#F26738" d="M419.356,47.108c0,6.712,5.439,12.152,12.15,12.152s12.151-5.44,12.151-12.152s-5.44-12.152-12.151-12.152
		S419.356,40.396,419.356,47.108"/>
</g>
<g id="Subtitle">
	<path fill="#515F66" d="M3.82,124.31c0,0,2.493,3.413,7.219,3.413c3.893,0,6.649-2.712,6.649-6.167c0-3.85-3.324-6.301-7.348-6.301
		c-3.414,0-5.864,1.576-5.864,1.576l-1.793-0.832l1.225-12.772c0.175-1.971,0.832-2.803,2.8-2.803H17.47
		c1.969,0,2.8,0.832,2.8,2.803v3.892h-3.982v-1.969c0-0.658-0.349-0.963-0.963-0.963H8.851c-0.612,0-0.874,0.305-0.963,0.963
		l-0.612,5.643c-0.087,0.963-0.218,1.621-0.218,1.621h0.087c0,0,1.662-0.92,3.982-0.92c6.65,0,11.025,4.506,11.025,10.15
		c0,5.424-4.375,10.191-11.113,10.191c-6.387,0-9.58-4.329-9.58-4.329L3.82,124.31z"/>
	<rect x="39.213" y="117.138" fill="#515F66" width="23.011" height="3.411"/>
	<path fill="#515F66" d="M83.664,114.558v-0.092c0,0-3.807-2.011-3.807-6.297c0-4.287,3.413-8.269,9.624-8.269
		c5.907,0,9.669,3.543,9.669,8.356c0,4.549-3.718,7.349-3.718,7.349v0.086c2.799,1.62,4.592,3.765,4.592,7.089
		c0,4.811-4.373,9.055-10.673,9.055c-5.82,0-10.763-3.629-10.763-9.359C78.587,117.4,83.664,114.558,83.664,114.558 M89.351,127.854
		c3.237,0,6.256-2.142,6.256-5.204c0-2.715-2.318-3.894-5.207-5.076c-1.18-0.48-2.842-1.136-3.193-1.136
		c-1.094,0-4.2,2.535-4.2,5.816C83.006,125.712,85.981,127.854,89.351,127.854 M91.625,113.856c1.051,0,3.281-2.58,3.281-5.338
		c0-2.842-2.274-4.637-5.425-4.637c-3.368,0-5.337,1.926-5.337,4.375c0,2.712,2.32,3.76,5.076,4.854
		C89.832,113.372,91.101,113.856,91.625,113.856"/>
	<path fill="#515F66" d="M118.225,104.187h-2.844v-3.763h17.018c1.969,0,2.8,0.832,2.8,2.803v3.892h-3.982v-1.969
		c0-0.658-0.348-0.963-0.961-0.963H122.6v10.148h10.543v3.766H122.6v13.211h-4.375V104.187z"/>
	<path fill="#515F66" d="M148.63,108.65c6.214,0,9.538,4.637,9.538,10.367c0,0.57-0.131,1.749-0.131,1.749h-16.143
		c0.262,4.726,3.674,7.395,7.612,7.395c3.806,0,6.475-2.581,6.475-2.581l1.836,3.021c0,0-3.281,3.234-8.53,3.234
		c-7,0-11.768-5.029-11.768-11.592C137.52,113.198,142.332,108.65,148.63,108.65 M153.793,117.662
		c-0.131-3.675-2.45-5.646-5.206-5.646c-3.237,0-5.863,1.971-6.518,5.646H153.793z"/>
	<path fill="#515F66" d="M163.637,105.019c0-0.658-0.35-0.963-0.963-0.963h-1.792v-3.632h4.199c1.968,0,2.8,0.832,2.8,2.804v7.217
		c0,1.049-0.088,1.834-0.088,1.834h0.088c0,0,1.925-3.628,7.131-3.628c5.95,0,9.713,4.722,9.713,11.593
		c0,7.043-4.244,11.592-10.063,11.592c-4.944,0-6.956-3.717-6.956-3.717h-0.087c0,0,0.087,0.698,0.087,1.66v1.533h-4.069V105.019z
		 M174.049,128.206c3.5,0,6.387-2.888,6.387-7.918c0-4.813-2.58-7.918-6.299-7.918c-3.281,0-6.344,2.318-6.344,7.961
		C167.793,124.269,169.849,128.206,174.049,128.206"/>
	<path fill="#515F66" d="M190.061,113.769c0-0.658-0.35-0.963-0.962-0.963h-1.793v-3.632h4.024c1.926,0,2.844,0.786,2.844,2.581
		v1.401c0,0.874-0.088,1.532-0.088,1.532h0.088c1.05-3.238,3.588-5.776,7-5.776c0.568,0,1.137,0.085,1.137,0.085v4.201
		c0,0-0.569-0.131-1.27-0.131c-2.711,0-5.205,1.926-6.212,5.207c-0.393,1.268-0.524,2.623-0.524,3.979v9.058h-4.244V113.769z"/>
	<path fill="#515F66" d="M207.21,113.769c0-0.658-0.351-0.963-0.963-0.963h-1.794v-3.632h4.157c2.012,0,2.843,0.832,2.843,2.712
		v10.499c0,3.064,0.612,5.515,4.112,5.515c4.551,0,7.22-3.982,7.22-8.357v-10.368h4.242v17.546c0,0.655,0.35,0.96,0.963,0.96h1.794
		v3.632h-4.069c-1.881,0-2.799-0.875-2.799-2.45v-0.831c0-0.701,0.042-1.271,0.042-1.271h-0.086
		c-0.919,2.188-3.763,5.075-8.138,5.075c-4.987,0-7.524-2.623-7.524-8.487V113.769z"/>
	<path fill="#515F66" d="M245.709,117.531h0.963v-0.22c0-3.894-1.444-5.295-4.9-5.295c-1.05,0-3.632,0.262-3.632,1.709v1.268h-3.98
		v-2.188c0-3.632,5.513-4.154,7.656-4.154c7.175,0,9.099,3.762,9.099,8.66v9.408c0,0.655,0.35,0.96,0.962,0.96h1.795v3.632h-3.982
		c-1.968,0-2.756-0.963-2.756-2.538c0-0.743,0.087-1.313,0.087-1.313h-0.087c0,0-1.75,4.375-7.043,4.375
		c-3.806,0-7.524-2.318-7.524-6.736C232.367,117.97,241.991,117.531,245.709,117.531 M240.809,128.423
		c3.587,0,5.906-3.76,5.906-7.041v-0.746h-1.093c-3.194,0-8.969,0.177-8.969,4.244C236.653,126.674,238.009,128.423,240.809,128.423
		"/>
	<path fill="#515F66" d="M258.267,113.769c0-0.658-0.351-0.963-0.963-0.963h-1.793v-3.632h4.025c1.925,0,2.844,0.786,2.844,2.581
		v1.401c0,0.874-0.089,1.532-0.089,1.532h0.089c1.05-3.238,3.587-5.776,7-5.776c0.568,0,1.136,0.085,1.136,0.085v4.201
		c0,0-0.568-0.131-1.269-0.131c-2.711,0-5.205,1.926-6.212,5.207c-0.393,1.268-0.524,2.623-0.524,3.979v9.058h-4.244V113.769z"/>
	<path fill="#515F66" d="M277.253,136.825c1.706,0,3.062-1.228,3.894-3.195l1.005-2.404l-7.568-17.545
		c-0.306-0.701-0.701-0.875-1.4-0.875h-0.526v-3.632h2.494c1.793,0,2.45,0.481,3.15,2.233l5.031,12.467
		c0.438,1.138,0.787,2.669,0.787,2.669h0.089c0,0,0.306-1.531,0.743-2.669l4.594-12.467c0.655-1.752,1.443-2.233,3.237-2.233h2.537
		v3.632h-0.568c-0.7,0-1.094,0.174-1.4,0.875l-8.75,21.612c-1.356,3.412-4.025,5.207-7.131,5.207c-3.281,0-5.205-2.188-5.205-2.188
		l1.748-3.065C274.014,135.293,275.373,136.825,277.253,136.825"/>
	<polygon fill="#515F66" points="301.927,126.72 298.209,135.731 294.927,135.731 297.639,126.72 	"/>
	<path fill="#515F66" d="M316.758,127.549h0.61c0.789,0,1.183-0.174,1.444-0.963l9.67-26.162h4.592l9.67,26.162
		c0.262,0.789,0.697,0.963,1.444,0.963h0.655v3.763h-2.45c-2.188,0-2.888-0.524-3.589-2.538l-2.318-6.343h-11.373l-2.318,6.343
		c-0.744,2.014-1.444,2.538-3.631,2.538h-2.406V127.549z M335.393,118.756l-3.367-9.405c-0.57-1.617-1.225-4.332-1.225-4.332h-0.088
		c0,0-0.612,2.715-1.183,4.332l-3.366,9.405H335.393z"/>
	<path fill="#515F66" d="M349.045,113.769c0-0.658-0.351-0.963-0.963-0.963h-1.792v-3.632h4.067c1.926,0,2.8,0.832,2.8,2.45v0.832
		c0,0.7-0.042,1.27-0.042,1.27h0.085c1.051-2.58,4.113-5.075,7.571-5.075c3.76,0,5.904,1.706,6.647,5.03h0.086
		c1.228-2.67,4.289-5.03,7.878-5.03c4.984,0,7.303,2.843,7.303,8.487v9.582c0,0.655,0.354,0.96,0.963,0.96h1.795v3.632h-4.198
		c-1.972,0-2.804-0.832-2.804-2.8v-10.456c0-3.105-0.609-5.555-3.891-5.555c-3.064,0-5.426,2.666-6.215,5.686
		c-0.216,0.917-0.348,1.88-0.348,3.02v10.105h-4.243v-13.256c0-2.889-0.439-5.555-3.806-5.555c-3.238,0-5.515,2.712-6.346,5.861
		c-0.217,0.875-0.306,1.835-0.306,2.844v10.105h-4.243V113.769z"/>
	<path fill="#515F66" d="M389.688,125.099c0,0,2.626,3.281,6.693,3.281c2.057,0,3.851-0.92,3.851-2.844
		c0-3.98-12.074-3.545-12.074-10.674c0-4.244,3.718-6.212,8.224-6.212c2.672,0,7.263,0.917,7.263,4.286v2.1h-3.805v-1.094
		c0-1.311-1.969-1.88-3.327-1.88c-2.492,0-4.11,0.874-4.11,2.626c0,4.198,12.074,3.281,12.074,10.673
		c0,3.938-3.498,6.474-8.135,6.474c-5.907,0-8.842-3.891-8.842-3.891L389.688,125.099z"/>
	<path fill="#515F66" d="M410.076,112.587h-2.888v-3.413h2.974v-6.081h4.158v6.081h5.292v3.413h-5.292v10.15
		c0,4.418,3.062,4.985,4.683,4.985c0.609,0,1.003-0.086,1.003-0.086v3.761c0,0-0.567,0.09-1.487,0.09
		c-2.797,0-8.442-0.877-8.442-8.271V112.587z"/>
	<path fill="#515F66" d="M433.876,108.65c6.212,0,9.536,4.637,9.536,10.367c0,0.57-0.131,1.749-0.131,1.749h-16.145
		c0.262,4.726,3.674,7.395,7.613,7.395c3.806,0,6.475-2.581,6.475-2.581l1.837,3.021c0,0-3.281,3.234-8.53,3.234
		c-7.002,0-11.77-5.029-11.77-11.592C422.762,113.198,427.576,108.65,433.876,108.65 M439.038,117.662
		c-0.131-3.675-2.449-5.646-5.207-5.646c-3.235,0-5.861,1.971-6.517,5.646H439.038z"/>
	<path fill="#515F66" d="M449.058,113.769c0-0.658-0.354-0.963-0.963-0.963H446.3v-3.632h4.025c1.925,0,2.845,0.786,2.845,2.581
		v1.401c0,0.874-0.092,1.532-0.092,1.532h0.092c1.049-3.238,3.586-5.776,6.999-5.776c0.566,0,1.136,0.085,1.136,0.085v4.201
		c0,0-0.569-0.131-1.269-0.131c-2.713,0-5.206,1.926-6.211,5.207c-0.393,1.268-0.523,2.623-0.523,3.979v9.058h-4.244V113.769z"/>
	<path fill="#515F66" d="M473.032,108.65c5.119,0,6.825,3.412,6.825,3.412h0.088c0,0-0.088-0.655-0.088-1.487v-5.557
		c0-0.658-0.351-0.963-0.963-0.963h-1.792v-3.632h4.199c1.968,0,2.8,0.832,2.8,2.803v23.493c0,0.655,0.35,0.96,0.962,0.96h1.792
		v3.632h-4.067c-1.926,0-2.712-0.875-2.712-2.364c0-0.655,0.046-1.137,0.046-1.137h-0.091c0,0-1.835,4.024-7.261,4.024
		c-5.996,0-9.756-4.723-9.756-11.592C463.014,113.198,467.17,108.65,473.032,108.65 M479.988,120.197
		c0-3.937-2.054-7.873-6.298-7.873c-3.458,0-6.346,2.889-6.346,7.919c0,4.813,2.58,7.918,6.258,7.918
		C476.88,128.161,479.988,125.843,479.988,120.197"/>
	<path fill="#515F66" d="M502.826,117.531h0.963v-0.22c0-3.894-1.444-5.295-4.902-5.295c-1.048,0-3.629,0.262-3.629,1.709v1.268
		h-3.981v-2.188c0-3.632,5.514-4.154,7.656-4.154c7.175,0,9.097,3.762,9.097,8.66v9.408c0,0.655,0.354,0.96,0.963,0.96h1.795v3.632
		h-3.982c-1.965,0-2.754-0.963-2.754-2.538c0-0.743,0.088-1.313,0.088-1.313h-0.088c0,0-1.752,4.375-7.044,4.375
		c-3.806,0-7.525-2.318-7.525-6.736C489.481,117.97,499.108,117.531,502.826,117.531 M497.923,128.423
		c3.589,0,5.907-3.76,5.907-7.041v-0.746h-1.094c-3.192,0-8.966,0.177-8.966,4.244C493.771,126.674,495.126,128.423,497.923,128.423
		"/>
	<path fill="#515F66" d="M515.383,113.769c0-0.658-0.354-0.963-0.963-0.963h-1.794v-3.632h4.067c1.926,0,2.803,0.832,2.803,2.45
		v0.832c0,0.7-0.046,1.27-0.046,1.27h0.086c1.054-2.58,4.112-5.075,7.57-5.075c3.763,0,5.908,1.706,6.648,5.03h0.088
		c1.228-2.67,4.287-5.03,7.876-5.03c4.987,0,7.306,2.843,7.306,8.487v9.582c0,0.655,0.351,0.96,0.962,0.96h1.793v3.632h-4.199
		c-1.969,0-2.801-0.832-2.801-2.8v-10.456c0-3.105-0.611-5.555-3.893-5.555c-3.062,0-5.423,2.666-6.212,5.686
		c-0.22,0.917-0.351,1.88-0.351,3.02v10.105h-4.244v-13.256c0-2.889-0.438-5.555-3.805-5.555c-3.236,0-5.512,2.712-6.344,5.861
		c-0.219,0.875-0.305,1.835-0.305,2.844v10.105h-4.244V113.769z"/>
</g>
</svg>
