<?xml version="1.0" encoding="utf-8"?>
<!-- Generator: Adobe Illustrator 14.0.0, SVG Export Plug-In . SVG Version: 6.00 Build 43363)  -->
<!DOCTYPE svg PUBLIC "-//W3C//DTD SVG 1.0//EN" "http://www.w3.org/TR/2001/REC-SVG-20010904/DTD/svg10.dtd">
<svg version="1.0" id="Layer_1" xmlns="http://www.w3.org/2000/svg" xmlns:xlink="http://www.w3.org/1999/xlink" x="0px" y="0px"
	 width="258.967px" height="485.396px" viewBox="2.514 2.304 258.967 485.396" enable-background="new 2.514 2.304 258.967 485.396"
	 xml:space="preserve">
<path id="big" fill="#FFFFFF" d="M150.51,487.45c0,0,6.44-181.141,7-195.63c0.78-20.021,5.82-107.271,5.79-109.1
	c-0.05-3.21-0.08-3.32-0.93-3.32c-2.78,0.36-5.311,1.76-8.09,2.09c-3.87-0.84-7.521-2.92-10.78-5.14c-1.99-2.24-0.73-6,0.31-8.72
	c0.23-0.61,1.171-2.41,1.74-4.19c3.24-10.08,2.811-9.18,4.79-10.21c3.29-1.05,6.391,1.59,8.91,3.53l1.39,1.11
	c3.721-1.45,7.7-2.14,11.32-3.82c0.09-0.07-0.59-0.89-1.52-1.84c-1.511-1.55-4.511-3.51-10.341-6.78
	c-1.09-0.6-12.35-9.27-15.55-12.26c-3.64-3.39-7.01-6.79-15.67-15.83c-11.07-11.55-16.72-17.15-42.08-41.76
	C84.04,72.9,63.48,54.25,61.54,52.5C57.96,49.27,9.91,8.02,8.63,6.9C6.09,4.68,5.52,3.89,5.85,3.04C6.41,1.59,11.8,3.52,16.92,7
	c1.5,1.02,50.06,39.07,52.9,41.29c1.36,1.06,28.96,24.19,30.57,25.33c1.84,1.3,28.8,24.68,31.71,27.44
	c1.6,1.52,37.69,33.33,44.169,39.14c3.4,3.05,5.771,4.86,6.79,5.23c0.87,0.3,1.771,0.7,2,0.87c0.221,0.18,0.801,0.42,1.28,0.54
	c1.101,0.27,3.3-1.55,3.67-3.04c0.49-1.95,5.851-12.46,7.3-14.31c2.46-3.15,23.761-21.07,25.78-22.64
	c2.03-1.56,24.641-19.35,25.46-20.03c6.54-5.44,10.65-8.56,11.53-8.76c0.76-0.16,1.15,0.66,1.15,2.43c0.01,1.9-1.921,5.08-5.54,9.14
	c-1.341,1.49-22,25.79-23.421,27.26c-1.409,1.48-21.699,24.23-25.85,28.37l-7.53,7.55l-0.33,2.18c-0.6,3.94-0.939,4.88-2.359,6.44
	c-0.94,1.13-1.07,2.53-0.88,3.96c0.149,1.21,0.689,4.24,1.55,7.36c0.28,1.04,8.04,30.21,8.32,31.52
	c0.329,1.6,19.92,59.23,20.359,60.58c0.44,1.36,16.99,61.141,17.26,62.29c4.78,17.511,8.58,35.28,12.601,52.98
	c0.43,1.99,1.229,7.06,1.62,10.64c-0.04,0.351-0.221,0.57-0.55,0.57c-0.32,0-0.681-0.3-0.801-0.67c-0.12-0.36-0.81-2.2-1.54-4.08
	c-1.779-4.55-3.29-9.22-4.67-14.37c-0.62-2.33-10.76-38-11.8-41.65c-1.04-3.659-18.64-61.5-19.729-64.949
	c-5.421-17.09-20.271-60.24-22.421-65.13c-3.659-8.74-6.8-17.68-10.649-26.33c-1.22-2.62-1.86-3.38-2.71-3.98
	c-0.83-0.59-1.67-1.01-1.88-0.95c-0.2,0.07-0.83,1.24-1.391,2.59c-1.01,2.43-1.02,2.55-0.89,9.86
	c0.07,4.08,5.97,110.061,6.12,116.23l4.68,189.52L150.51,487.45z"/>
<path id="small" fill="#FFFFFF" d="M82.36,485.45c0,0,3.53-98.96,3.84-106.87c0.43-10.94,3.2-58.61,3.19-59.6
	c-0.03-1.761-0.05-1.82-0.52-1.82c-1.52,0.2-2.91,0.96-4.44,1.14c-2.13-0.46-4.14-1.59-5.93-2.8c-1.09-1.23-0.4-3.28,0.17-4.77
	c0.13-0.33,0.64-1.311,0.96-2.28c1.77-5.51,1.54-5.021,2.63-5.58c1.81-0.58,3.52,0.86,4.9,1.93l0.76,0.601
	c2.05-0.79,4.24-1.17,6.23-2.091c0.05-0.029-0.33-0.479-0.84-1c-0.83-0.85-2.48-1.92-5.68-3.699c-0.6-0.341-6.8-5.07-8.56-6.7
	c-1.99-1.851-3.85-3.72-8.61-8.65c-6.09-6.31-9.19-9.37-23.14-22.81c-1.51-1.47-12.82-11.66-13.89-12.61
	c-1.97-1.76-28.39-24.3-29.09-24.91c-1.4-1.22-1.71-1.65-1.53-2.12c0.31-0.79,3.27,0.27,6.09,2.17
	c0.83,0.56,27.52,21.35,29.08,22.56c0.75,0.58,15.93,13.21,16.82,13.84c1,0.71,15.83,13.48,17.43,14.99
	c0.88,0.82,20.72,18.2,24.29,21.38c1.87,1.66,3.17,2.65,3.73,2.85c0.48,0.17,0.97,0.391,1.1,0.48c0.12,0.1,0.44,0.229,0.71,0.29
	c0.6,0.149,1.81-0.84,2.01-1.66c0.27-1.06,3.22-6.8,4.01-7.81c1.36-1.721,13.07-11.511,14.18-12.37c1.12-0.86,13.55-10.57,14-10.95
	c3.59-2.97,5.851-4.67,6.34-4.78c0.42-0.09,0.631,0.36,0.631,1.33c0.01,1.04-1.051,2.771-3.051,4.99
	c-0.729,0.82-12.09,14.09-12.87,14.899c-0.78,0.801-11.94,13.23-14.21,15.49l-4.14,4.13l-0.19,1.19c-0.32,2.15-0.51,2.66-1.3,3.52
	c-0.51,0.62-0.58,1.381-0.48,2.16c0.09,0.66,0.38,2.32,0.85,4.021c0.16,0.569,4.43,16.51,4.58,17.22
	c0.18,0.87,10.95,32.35,11.19,33.1c0.24,0.74,9.35,33.4,9.49,34.021c2.631,9.57,4.721,19.28,6.931,28.95
	c0.239,1.08,0.68,3.85,0.89,5.81c-0.02,0.19-0.12,0.311-0.3,0.311s-0.37-0.171-0.44-0.37c-0.06-0.19-0.449-1.2-0.85-2.23
	c-0.97-2.479-1.811-5.03-2.561-7.85c-0.34-1.271-5.919-20.75-6.49-22.75c-0.57-2-10.25-33.601-10.85-35.48
	c-2.98-9.33-11.15-32.91-12.33-35.58c-2.01-4.779-3.74-9.66-5.86-14.39c-0.67-1.43-1.02-1.84-1.49-2.17
	c-0.45-0.32-0.92-0.55-1.03-0.521c-0.11,0.04-0.45,0.681-0.76,1.42c-0.56,1.32-0.56,1.391-0.49,5.391
	c0.04,2.22,3.28,60.12,3.37,63.49l2.57,103.529L82.36,485.45z"/>
</svg>
