<?xml version="1.0" encoding="utf-8"?>
<!-- Generator: Adobe Illustrator 14.0.0, SVG Export Plug-In . SVG Version: 6.00 Build 43363)  -->
<!DOCTYPE svg PUBLIC "-//W3C//DTD SVG 1.1//EN" "http://www.w3.org/Graphics/SVG/1.1/DTD/svg11.dtd">
<svg version="1.1" id="Layer_1" xmlns="http://www.w3.org/2000/svg" xmlns:xlink="http://www.w3.org/1999/xlink" x="0px" y="0px"
	 width="374.18px" height="75.748px" viewBox="0 0 374.18 75.748" enable-background="new 0 0 374.18 75.748" xml:space="preserve">
<g>
	<path fill-rule="evenodd" clip-rule="evenodd" fill="#9B3B46" d="M116.389,63.398c0-3.446-0.181-3.813-1.816-4.354
		c-0.362,0-1.088-0.184-1.452-0.184c-0.181,0-0.363,0-0.363-0.183c0-0.18,0.182-0.363,0.727-0.363c1.814,0,4.539,0.184,4.72,0.184
		c0.182,0,2.906-0.184,4.177-0.184c0.544,0,0.727,0.184,0.727,0.363c0,0.183-0.182,0.183-0.363,0.183
		c-0.363,0-0.545,0.184-1.089,0.184c-1.09,0.179-1.454,0.907-1.454,2.538c-0.181,1.271-0.181,2.544-0.181,4.359v4.901
		c0,1.814,0,1.998-0.545,2.36c-2.723,1.452-6.536,1.815-8.897,1.815c-3.268,0-9.259-0.363-13.98-4.539
		c-2.724-2.36-5.084-6.899-5.084-12.348c0-6.716,3.269-11.619,7.082-13.979c3.813-2.541,7.99-2.724,11.258-2.724
		c2.723,0,5.629,0.546,6.536,0.729c0.908,0.18,2.361,0.362,3.451,0.362c0.362,0,0.544,0.18,0.544,0.362
		c0,0.545-0.363,1.815-0.363,6.174c0,0.545-0.181,0.907-0.363,0.907c-0.182,0-0.363-0.362-0.363-0.728
		c0-0.542-0.182-1.815-0.908-2.902c-1.09-1.636-4.54-3.451-9.986-3.451c-2.542,0-5.81,0.362-9.078,2.905
		c-2.361,1.998-4.177,5.809-4.177,10.893c0,5.994,3.087,10.531,4.539,11.985c3.268,3.268,7.264,4.538,11.077,4.538
		c1.634,0,3.813-0.179,4.902-0.908c0.545-0.362,0.726-0.724,0.726-1.452V63.398L116.389,63.398z"/>
	<path fill-rule="evenodd" clip-rule="evenodd" fill="#9B3B46" d="M140.356,62.312c0.182,0,0.182-0.184,0.182-0.366l-3.45-9.983
		c-0.182-0.545-0.362-0.545-0.544,0l-3.268,9.983c0,0.183,0,0.366,0.181,0.366H140.356L140.356,62.312z M136.543,47.421
		c0.363-1.087,0.544-1.27,0.727-1.27c0.362-0.184,0.362,0,0.908,1.27c0.544,1.273,6.173,16.522,8.534,22.152
		c1.271,3.269,2.178,3.814,3.087,4.176c0.544,0.184,1.09,0.184,1.452,0.184c0.182,0,0.364,0,0.364,0.179
		c0,0.184-0.364,0.366-0.726,0.366c-0.546,0-3.269,0-5.811-0.183c-0.726,0-1.09,0-1.09-0.184c0-0.179,0.181-0.179,0.364-0.179
		c0.182-0.184,0.363-0.545,0.182-1.091l-3.451-9.081c0-0.18-0.182-0.18-0.363-0.18h-7.808c-0.182,0-0.182,0.18-0.363,0.362
		l-2.179,6.537c-0.182,0.908-0.364,1.637-0.364,2.361s0.726,1.091,1.271,1.091h0.363c0.362,0,0.362,0,0.362,0.179
		c0,0.184-0.181,0.366-0.544,0.366c-0.908,0-2.359-0.183-2.724-0.183c-0.544,0-2.542,0.183-4.176,0.183
		c-0.544,0-0.725-0.183-0.725-0.366c0-0.179,0.181-0.179,0.362-0.179c0.182,0,0.727,0,1.089,0c1.634-0.366,2.361-1.637,3.087-3.452
		L136.543,47.421L136.543,47.421z"/>
	<path fill-rule="evenodd" clip-rule="evenodd" fill="#9B3B46" d="M161.237,63.761c0,3.451,0,6.358,0.181,7.99
		c0.182,1.091,0.364,1.815,1.453,1.998c0.544,0.184,1.271,0.184,1.634,0.184c0.181,0,0.364,0.179,0.364,0.179
		c0,0.184-0.183,0.366-0.727,0.366c-1.815,0-4.176-0.183-4.358-0.183c-0.182,0-2.542,0.183-3.631,0.183
		c-0.364,0-0.545-0.183-0.545-0.366c0,0,0-0.179,0.363-0.179c0.182,0,0.727,0,1.088-0.184c0.727-0.183,0.909-0.907,0.909-1.998
		c0.181-1.632,0.181-4.539,0.181-7.99V48.149h-5.266c-2.36,0.18-3.086,0.362-3.813,1.27c-0.363,0.545-0.363,0.908-0.544,1.091
		c-0.182,0.362-0.182,0.362-0.364,0.362c-0.181,0-0.181,0-0.181-0.362c0-0.366,0.727-3.451,0.727-3.813
		c0.181-0.183,0.363-0.545,0.363-0.545c0.363-0.184,0.727,0.362,1.634,0.362c1.09,0.183,2.542,0.183,2.905,0.183h13.618
		c1.271,0,1.998-0.183,2.542-0.183c0.545-0.18,0.908-0.18,1.09-0.18c0.181,0,0.181,0.18,0.181,0.362c0,1.09-0.181,3.631-0.181,4.176
		c0,0.362,0,0.362-0.182,0.362c-0.181,0-0.181,0-0.362-0.545v-0.362c-0.182-1.091-0.909-1.998-4.358-2.178h-4.721V63.761
		L161.237,63.761z"/>
	<path fill-rule="evenodd" clip-rule="evenodd" fill="#9B3B46" d="M177.941,57.226c0-5.809,0-6.716,0-7.989
		c-0.181-1.271-0.363-1.815-1.634-1.995c-0.182-0.183-0.908-0.183-1.271-0.183c0,0-0.181,0-0.181-0.183
		c0-0.18,0.181-0.362,0.544-0.362c1.634,0,3.995,0.183,4.176,0.183s7.445,0,8.353,0c0.544,0,1.271-0.183,1.452-0.183
		c0.181,0,0.363-0.18,0.545-0.18c0.181,0,0.181,0.18,0.181,0.362c0,0.18-0.181,0.545-0.362,1.633c0,0.365,0,1.998-0.183,2.36
		c0,0.183,0,0.545-0.181,0.545c-0.182,0-0.362-0.18-0.362-0.545c0-0.18,0-0.908-0.182-1.271c-0.184-0.725-0.546-1.09-2.543-1.27
		c-0.726-0.184-4.539-0.184-5.083-0.184c0,0-0.183,0.184-0.183,0.363v10.17c0,0.362,0,0.362,0.183,0.362c0.544,0,5.083,0,5.81,0
		c0.908-0.183,1.452-0.183,1.816-0.546c0.182-0.362,0.362-0.545,0.544-0.545c0,0,0.181,0.183,0.181,0.362
		c0,0.183-0.181,0.912-0.362,1.998c0,0.729-0.181,2.181-0.181,2.36c0,0.362,0,0.729-0.182,0.729c-0.184,0-0.364,0-0.364-0.366
		c0-0.362,0-0.726,0-1.087c-0.182-0.546-0.544-1.273-1.997-1.273c-0.908-0.181-4.54-0.181-5.084-0.181c-0.181,0-0.364,0-0.364,0.181
		v3.268c0,1.274,0,5.451,0,6.358c0.183,2.539,0.727,2.906,4.176,2.906c1.09,0,2.543,0,3.633-0.367
		c0.907-0.362,1.27-1.086,1.634-2.723c0-0.362,0-0.545,0.181-0.545c0.362,0,0.362,0.366,0.362,0.545
		c0,0.362-0.362,2.906-0.543,3.631c-0.183,0.911-0.545,0.911-1.998,0.911c-5.447,0-7.988-0.183-8.897-0.183
		c-0.181,0-0.726,0-1.452,0c-0.727,0.183-1.635,0.183-2.18,0.183c-0.362,0-0.544-0.183-0.544-0.366c0,0,0-0.179,0.363-0.179
		c0.181,0,0.726,0,1.089-0.184c0.726-0.183,0.908-0.907,0.908-1.998c0.181-1.632,0.181-4.539,0.181-7.99V57.226L177.941,57.226z"/>
	<path fill-rule="evenodd" clip-rule="evenodd" fill="#9B3B46" d="M197.55,73.933c-0.363-0.184-0.544-0.366-0.544-1.453
		c0-1.814,0.181-3.268,0.181-3.813c0.183-0.362,0.183-0.546,0.363-0.546c0.184,0,0.184,0,0.184,0.362c0,0.367,0,0.908,0.181,1.274
		c0.545,2.723,2.903,3.81,5.448,3.81c3.448,0,5.083-2.54,5.083-4.9c0-2.545-1.09-3.993-4.176-6.538l-1.635-1.452
		c-3.813-3.268-4.721-5.445-4.721-7.988c0-3.993,2.903-6.536,7.625-6.536c1.271-0.184,2.361,0,3.269,0.362
		c0.727,0,1.091,0.183,1.271,0.183c0.362,0,0.362,0,0.362,0.18c0,0.183,0,1.453,0,3.813c0,0.728-0.181,0.907-0.362,0.907
		c-0.181,0-0.181-0.18-0.364-0.362c0-0.545-0.181-1.453-0.362-1.998c-0.182-0.362-1.27-1.815-4.538-1.815
		c-2.544,0-4.54,1.453-4.54,4.176c0,2.181,1.089,3.451,4.54,6.174l0.906,0.908c4.358,3.449,5.266,5.627,5.266,8.533
		c0,1.638-0.545,4.36-3.086,6.176c-1.454,1.09-3.45,1.632-5.448,1.632C200.818,75.02,199.184,74.656,197.55,73.933L197.55,73.933z"
		/>
	<path fill-rule="evenodd" clip-rule="evenodd" fill="#9B3B46" d="M231.687,56.863c-0.184,0.545-0.364,1.452-0.727,2.36
		c-0.908,3.451-1.815,6.719-2.725,10.167c-0.908,2.727-1.815,4.358-2.361,4.904c-0.361,0.361-1.631,1.453-3.448,1.453
		c-1.271,0-1.815-0.907-1.815-1.453c0-0.729,0.362-0.907,0.545-1.091c0.362-0.362,0.543-0.179,0.908,0.184
		c0.362,0.724,1.088,1.269,1.634,1.269s1.27-0.545,1.996-2.539c1.453-5.088,2.361-10.351,3.813-15.254h-2.36
		c-0.362-0.183-0.181-0.726,0.181-1.091h2.542c0.727-2.723,1.453-5.083,3.271-7.078c1.451-1.818,3.269-2.543,5.083-2.543
		c1.271,0,2.361,0.725,2.361,1.998c0,0.907-0.728,1.814-1.272,1.814c-0.181,0-0.362-0.362-0.362-0.545
		c-0.183-1.815-1.091-2.36-1.816-2.36c-0.907,0-1.635,0.728-2.361,1.636c-1.451,1.995-1.996,4.538-2.723,7.078h3.632
		c0.182,0.365,0.182,0.729-0.363,1.091H231.687L231.687,56.863z"/>
	<path fill-rule="evenodd" clip-rule="evenodd" fill="#9B3B46" d="M243.669,57.771c-1.815,2.36-2.904,5.99-3.085,7.443
		c0,1.09,0.362,1.998,1.27,1.998c0.727,0,1.453-0.361,2.36-1.632c1.271-1.637,2.726-5.628,2.726-7.265
		c0.181-0.907,0-1.998-1.092-1.998C245.303,56.317,244.58,56.501,243.669,57.771L243.669,57.771z M249.117,59.224
		c-0.181,1.636-1.089,4.537-3.269,6.719c-1.815,1.998-3.448,2.178-4.176,2.178c-1.996,0-3.086-1.453-3.086-3.993
		c0.181-1.815,1.271-4.903,3.268-6.719c1.634-1.636,2.906-1.998,4.178-1.998C248.208,55.41,249.117,57.046,249.117,59.224
		L249.117,59.224z"/>
	<path fill-rule="evenodd" clip-rule="evenodd" fill="#9B3B46" d="M256.379,65.035c-0.362,0.724-0.181,1.086,0.181,1.086
		c0.365,0,1.637-0.907,3.088-2.54c2.725-2.722,4.358-6.173,5.266-7.988c0.728-0.183,1.451,0.18,1.451,0.545
		c-0.181,0.726-2.177,5.808-3.449,9.259c-0.181,0.546-0.181,0.725,0.182,0.725c0.546,0,2.18-1.27,2.906-2.178
		c0.181-0.183,0.545,0,0.545,0.362c-0.727,1.453-3.633,3.814-5.266,3.814c-0.363,0-0.908-0.546-0.728-1.091l1.998-5.446V61.4
		c-2.179,2.905-5.81,6.72-7.443,6.72c-1.272,0-1.453-1.27-0.91-2.54l2.726-7.447c0.182-0.541,0.182-0.725,0-0.725
		c-0.546,0-1.998,1.271-2.726,1.998c-0.362,0-0.543-0.183-0.543-0.361c0.727-1.274,3.812-3.635,5.083-3.635
		c0.365,0,1.089,0.362,0.908,0.907L256.379,65.035L256.379,65.035z"/>
	<path fill-rule="evenodd" clip-rule="evenodd" fill="#9B3B46" d="M274.9,61.945L274.9,61.945c2.18-3.267,5.084-6.535,7.444-6.535
		c1.09,0,1.634,0.545,1.634,1.636c0,0.362-0.181,1.453-0.544,1.999c-0.545,1.631-2.541,6.535-2.725,6.714
		c-0.181,0.362-0.181,0.545,0,0.545c0.546,0,1.999-0.907,2.907-1.998c0.361,0,0.361,0.184,0.361,0.367
		c-1.089,1.994-3.449,3.447-5.084,3.447c-0.181,0-0.726-0.363-0.726-0.725c0-0.366,0.183-0.545,0.726-1.999
		c0.728-1.453,1.815-4.537,2.361-5.99c0.364-0.545,0.727-1.636,0.727-2.181c0-0.362,0-0.725-0.545-0.725
		c-0.728,0-2.361,1.452-3.995,3.63c-1.634,1.997-2.904,4.358-4.538,7.626c-0.184,0.184-0.364,0.363-0.546,0.363
		c-0.361,0-1.271-0.18-0.907-0.725l3.449-9.625c0.183-0.362,0.183-0.725-0.182-0.725c-0.545,0-1.634,0.725-2.541,1.633
		c-0.364,0-0.545-0.18-0.545-0.546c1.271-1.452,3.086-2.723,4.54-2.723c0.726,0,1.088,0.545,0.726,1.271L274.9,61.945L274.9,61.945z
		"/>
	<path fill-rule="evenodd" clip-rule="evenodd" fill="#9B3B46" d="M295.417,57.592c-1.27,1.087-3.448,3.991-4.356,5.807
		c-0.907,1.998-0.907,2.544-0.907,2.905c0,0.363,0.362,0.726,0.545,0.726c0.543,0,1.996-0.542,3.994-2.724
		c2.361-2.36,3.269-4.175,3.631-5.807c0.362-1.273,0-2.182-0.727-2.182S296.144,56.863,295.417,57.592L295.417,57.592z
		 M301.229,50.144c0.724-1.814,0.724-2.357,0.361-2.54l-0.726-0.545c0,0,0-0.183,0.183-0.362c0.543-0.183,2.178-0.545,3.45-0.545
		l0.181,0.183c-0.545,1.632-1.089,2.723-1.998,5.263c-2.905,8.355-4.357,13.076-4.538,13.983c-0.182,0.362-0.182,0.724,0.181,0.724
		c0.545,0,2.36-1.452,3.268-2.723c0.182,0,0.362,0.18,0.362,0.362c-0.724,1.637-3.448,4.177-4.899,4.177
		c-0.727,0-1.091-0.546-1.091-0.908c0-0.361,0.182-0.908,0.364-1.815l1.088-2.905v-0.18c-2.179,2.902-4.356,5.809-7.262,5.809
		c-1.09,0-1.815-0.908-1.815-2.178c0-2.182,1.634-5.812,3.994-7.81c1.997-1.995,3.813-2.723,5.265-2.723
		c0.546,0,1.271,0.183,1.634,0.907L301.229,50.144L301.229,50.144z"/>
	<path fill-rule="evenodd" clip-rule="evenodd" fill="#9B3B46" d="M311.395,58.133c-1.814,1.636-3.812,5.628-3.812,7.81
		c0,0.361,0.362,0.545,0.543,0.545c0.365,0,1.272-0.366,2.907-1.998c2.18-2.178,3.45-4.721,3.995-6.536
		c-0.183-0.545-0.729-1.09-1.453-1.09C312.848,56.863,312.302,57.226,311.395,58.133L311.395,58.133z M316.662,54.686
		c0.362-0.183,1.27,0,1.452,0.362c-0.545,1.27-3.085,7.806-3.993,10.711c-0.183,0.362-0.183,0.545,0.18,0.545
		c0.546,0,1.27-0.361,3.089-1.998c0.18,0,0.362,0.184,0.362,0.367c-1.27,1.814-3.451,3.447-5.083,3.447
		c-0.547,0-0.728-0.546-0.728-0.908c0-0.183,0-0.361,0.181-1.091l1.092-2.723h-0.183c-1.997,2.544-5.085,4.722-6.537,4.722
		c-0.728,0-1.272-0.908-1.272-1.633c0-0.729,0.545-3.268,2.544-5.994c1.453-1.994,2.723-3.085,3.994-3.813
		c1.089-0.726,1.996-0.908,2.725-0.908c0.362,0,0.545,0.183,0.725,0.183c0,0,0.361,0.362,0.545,0.726L316.662,54.686L316.662,54.686
		z"/>
	<path fill-rule="evenodd" clip-rule="evenodd" fill="#9B3B46" d="M327.556,57.226l-2.723,7.988c0,0.545,0,0.729,0.362,0.729
		s2.36-1.637,3.268-2.723c0.363,0,0.546,0.179,0.546,0.541c-1.815,2.543-4.542,4.359-5.812,4.359c-0.362,0-0.726-0.363-0.726-0.908
		c0-0.361,0-0.725,0.363-1.632l2.723-8.354h-2.178c-0.183-0.362,0-0.725,0.18-0.908l2.543-0.362l1.633-2.905
		c0.183-0.18,0.911-0.18,1.091,0.183l-0.908,2.905h3.269c0.183,0.363,0,0.908-0.363,1.088H327.556L327.556,57.226z"/>
	<path fill-rule="evenodd" clip-rule="evenodd" fill="#9B3B46" d="M341.354,49.236c0,0.907-0.542,1.998-1.633,1.998
		c-0.724,0-0.908-0.725-0.908-1.271c0-0.545,0.363-1.814,1.454-1.814C340.991,48.149,341.354,48.694,341.354,49.236L341.354,49.236z
		 M337.544,57.953c0.179-0.361,0.179-0.728,0-0.728c-0.184,0-1.092,0.366-2.544,1.636c-0.184,0-0.363-0.183-0.363-0.546
		c1.633-1.814,3.993-2.905,4.901-2.905c0.183,0,0.362,0.183,0.545,0.183c0.184,0.362,0.184,0.545-0.183,1.453l-3.631,8.534
		c0,0.362-0.179,0.724,0.183,0.724c0.547,0,1.999-1.09,3.086-2.36c0.183,0.184,0.362,0.362,0.362,0.546
		c-0.362,0.907-3.448,3.631-5.446,3.631c-0.183,0-0.362-0.18-0.545-0.363c-0.179-0.183-0.179-0.361-0.179-0.728L337.544,57.953
		L337.544,57.953z"/>
	<path fill-rule="evenodd" clip-rule="evenodd" fill="#9B3B46" d="M350.25,57.771c-1.632,2.36-2.901,5.99-2.901,7.443
		c0,1.09,0.362,1.998,1.27,1.998c0.545,0,1.27-0.361,2.36-1.632c1.27-1.637,2.54-5.628,2.724-7.265c0-0.907-0.184-1.998-1.271-1.998
		C351.887,56.317,351.158,56.501,350.25,57.771L350.25,57.771z M355.701,59.224c0,1.636-0.908,4.537-3.09,6.719
		c-1.815,1.998-3.447,2.178-4.354,2.178c-1.815,0-3.09-1.453-2.905-3.993c0.183-1.815,1.269-4.903,3.268-6.719
		c1.453-1.636,2.906-1.998,3.992-1.998C354.792,55.41,355.879,57.046,355.701,59.224L355.701,59.224z"/>
	<path fill-rule="evenodd" clip-rule="evenodd" fill="#9B3B46" d="M363.869,61.945L363.869,61.945
		c2.182-3.267,5.082-6.535,7.264-6.535c1.271,0,1.815,0.545,1.815,1.636c0,0.362-0.362,1.453-0.545,1.999
		c-0.546,1.631-2.724,6.535-2.724,6.714c-0.183,0.362-0.183,0.545,0,0.545c0.546,0,1.998-0.907,2.724-1.998
		c0.545,0,0.545,0.184,0.545,0.367c-1.091,1.994-3.451,3.447-5.083,3.447c-0.363,0-0.728-0.363-0.728-0.725
		c0-0.366,0-0.545,0.728-1.999c0.545-1.453,1.632-4.537,2.36-5.99c0.18-0.545,0.725-1.636,0.725-2.181
		c0-0.362-0.18-0.725-0.545-0.725c-0.726,0-2.54,1.452-4.175,3.63c-1.454,1.997-2.724,4.358-4.538,7.626
		c-0.185,0.184-0.185,0.363-0.546,0.363c-0.362,0-1.091-0.18-0.907-0.725l3.63-9.625c0-0.362,0-0.725-0.18-0.725
		c-0.728,0-1.635,0.725-2.723,1.633c-0.183,0-0.366-0.18-0.366-0.546c1.092-1.452,2.906-2.723,4.542-2.723
		c0.541,0,0.908,0.545,0.726,1.271L363.869,61.945L363.869,61.945z"/>
	<path fill-rule="evenodd" clip-rule="evenodd" fill="#9B3B46" d="M6.902,18.916c0,3.449,0,8.714,0,9.441
		c0.182,1.998,0.182,2.724,1.453,3.268c1.088,0.546,2.905,0.727,3.63,0.727c2.361,0,5.993-1.271,5.993-6.173
		c0-2.542-0.909-6.355-3.996-8.535c-1.452-1.089-2.542-1.271-3.631-1.271c-0.545-0.181-2.723-0.181-3.268-0.181
		c-0.182,0-0.182,0.181-0.182,0.363V18.916L6.902,18.916z M6.902,14.375c0,0.364,0,0.545,0.182,0.545
		c0.362,0,1.089,0.181,2.542,0.181c2.359,0,3.086-0.181,3.994-1.089c0.908-1.089,1.453-2.543,1.453-4.357
		c0-3.632-1.634-7.445-5.629-7.445c-0.544,0-1.452,0-2.178,0.182C6.902,2.574,6.902,2.574,6.902,2.937V14.375L6.902,14.375z
		 M3.452,13.468c0-6.717,0-7.807-0.182-9.26c0-1.453-0.363-2.178-1.815-2.542c-0.364,0-0.909,0-1.453,0
		c-0.182,0-0.182-0.182-0.182-0.363c0-0.181,0.182-0.363,0.545-0.363c1.997,0,4.721,0.182,4.902,0.182
		c0.908,0,2.542-0.182,4.54-0.182c6.9,0,8.534,4.358,8.534,6.536c0,3.451-1.998,5.629-3.995,7.809
		c3.087,0.908,7.263,3.995,7.263,9.078c0,4.54-3.449,9.26-10.712,9.26c-1.09,0-5.448-0.181-5.629-0.181c-0.181,0-2.905,0-4.176,0
		c-0.545,0-0.726,0-0.726-0.182s0.181-0.363,0.363-0.363c0.363,0,0.908,0,1.271-0.181c0.908-0.182,1.09-1.09,1.271-2.36
		c0.182-1.816,0.182-5.084,0.182-9.26V13.468L3.452,13.468z"/>
	<path fill-rule="evenodd" clip-rule="evenodd" fill="#9B3B46" d="M34.138,22.911c0,3.449,0,6.354,0.182,7.988
		c0,0.908,0.181,1.816,1.271,1.998c0.545,0,1.452,0.181,1.634,0.181c0.183,0,0.364,0,0.364,0.182s-0.181,0.182-0.546,0.182
		c-1.996,0-4.356,0-4.539,0c-0.181,0-2.542,0-3.632,0c-0.362,0-0.544,0-0.544-0.182s0.182-0.182,0.363-0.182
		c0.363,0,0.726-0.181,1.09-0.181c0.726-0.181,0.908-1.09,1.089-1.998c0.182-1.634,0.182-4.539,0.182-7.988v-6.538
		c0-5.81,0-6.717-0.182-7.989c0-1.271-0.363-1.816-1.089-1.997c-0.545-0.183-0.909-0.183-1.271-0.183
		c-0.182,0-0.182-0.181-0.182-0.181c0-0.363,0.182-0.363,0.544-0.363c1.09,0,3.451,0.181,3.632,0.181
		c0.182,0,2.542-0.181,3.632-0.181c0.363,0,0.545,0,0.545,0.363c0,0-0.182,0.181-0.364,0.181c-0.181,0-0.363,0-0.907,0
		c-0.909,0.183-1.271,0.908-1.271,2.179s0,2.179,0,7.989V22.911L34.138,22.911z"/>
	<path fill-rule="evenodd" clip-rule="evenodd" fill="#9B3B46" d="M49.752,22.911c0,5.446,0.181,7.807,0.907,8.352
		c0.545,0.726,1.453,0.909,4.358,0.909c1.816,0,3.449,0,4.358-1.09c0.544-0.545,0.907-1.453,0.907-2.179
		c0-0.364,0.182-0.545,0.363-0.545s0.181,0.181,0.181,0.545c0,0.362-0.181,2.723-0.544,3.813c-0.181,0.727-0.363,0.908-2.178,0.908
		c-5.266,0-7.626-0.181-9.805-0.181c-0.182,0-0.727,0-1.453,0c-0.727,0-1.635,0-2.18,0c-0.362,0-0.544,0-0.544-0.182
		s0.182-0.182,0.363-0.182c0.182,0,0.727-0.181,1.09-0.181c0.726-0.181,0.907-1.09,0.907-1.998c0.364-1.634,0.364-4.539,0.364-7.988
		v-6.538c0-5.81,0-6.717-0.182-7.989c0-1.271-0.363-1.816-1.453-2.179c-0.363,0-0.907,0-1.271,0c-0.182,0-0.363-0.181-0.363-0.181
		c0-0.363,0.181-0.363,0.544-0.363c1.634,0,3.995,0.181,4.177,0.181c0.181,0,2.905-0.181,3.995-0.181c0.362,0,0.544,0,0.544,0.363
		c0,0-0.182,0.181-0.363,0.181s-0.726,0-1.09,0c-1.089,0.183-1.453,0.908-1.453,2.179c-0.181,1.271-0.181,2.179-0.181,7.989V22.911
		L49.752,22.911z"/>
	<path fill-rule="evenodd" clip-rule="evenodd" fill="#9B3B46" d="M70.27,22.911c0,5.446,0.181,7.807,0.727,8.352
		c0.544,0.726,1.452,0.909,4.356,0.909c1.999,0,3.632,0,4.358-1.09c0.544-0.545,0.909-1.453,1.09-2.179c0-0.364,0-0.545,0.181-0.545
		c0.182,0,0.363,0.181,0.363,0.545c0,0.362-0.363,2.723-0.544,3.813c-0.364,0.727-0.364,0.908-2.36,0.908
		c-5.266,0-7.626-0.181-9.805-0.181c0,0-0.727,0-1.453,0c-0.726,0-1.452,0-1.997,0s-0.726,0-0.726-0.182s0.181-0.182,0.362-0.182
		c0.364,0,0.727-0.181,1.09-0.181c0.727-0.181,0.908-1.09,1.089-1.998c0.182-1.634,0.182-4.539,0.182-7.988v-6.538
		c0-5.81,0-6.717-0.182-7.989c0-1.271-0.182-1.816-1.453-2.179c-0.363,0-0.908,0-1.271,0c-0.182,0-0.182-0.181-0.182-0.181
		c0-0.363,0.182-0.363,0.545-0.363c1.634,0,3.813,0.181,3.995,0.181c0.181,0,2.905-0.181,3.994-0.181c0.364,0,0.545,0,0.545,0.363
		l-0.181,0.181c-0.364,0-0.909,0-1.271,0c-1.09,0.183-1.271,0.908-1.452,2.179c0,1.271,0,2.179,0,7.989V22.911L70.27,22.911z"/>
	<path fill-rule="evenodd" clip-rule="evenodd" fill="#9B3B46" d="M94.964,17.826c0-0.364,0-0.727,0-0.727
		c0-0.727-0.364-1.089-0.908-1.089c-0.545,0-1.453,0.544-2.361,1.815c-1.09,1.271-1.452,2.36-1.816,3.812
		C92.24,20.004,93.874,18.733,94.964,17.826L94.964,17.826z M87.882,23.818c0-1.453,0.545-4.177,2.906-6.718
		c1.997-1.998,3.995-2.36,4.539-2.36c1.453,0,1.634,0.907,1.998,1.271c1.271-1.09,3.449-3.268,4.358-4.541
		c0.363-0.544,1.088-1.814,1.088-2.541c0-0.545-0.181-0.727-0.363-0.909c-0.363-0.362-0.363-0.362-0.363-0.726
		c0-0.907,0.545-1.271,1.271-1.271c0.725,0,1.271,0.364,1.271,1.634c0,1.634-0.909,3.631-3.813,6.355
		c-2.542,2.542-7.626,6.537-10.894,8.715v0.364c0,3.813,3.087,5.265,5.447,5.265c2.542,0,5.629-1.816,7.444-5.084
		c1.271-2.178,1.634-3.813,1.634-6.355c-0.363-0.181-0.907-0.544-1.634-0.544c-0.908,0-2.178,0.909-2.178,1.997
		c0,0.363,0.181,0.727,0.181,1.09c0.182,0.363,0.363,0.727,0.363,0.909c0,0.181-0.181,0.908-1.088,0.908
		c-0.546,0-1.271-0.546-1.271-1.272c0-0.908,0.545-2.178,1.997-3.631c1.271-0.908,2.724-1.271,3.087-1.271
		c1.634,0,2.543,1.09,4.176,2.542c0.727,0.545,0.727,0.727,1.271,0.727c0.364,0,0.545-0.363,0.545-0.908c0-0.363,0-0.545,0-0.726
		c-0.181-0.363-0.181-0.363-0.181-0.544c0-0.363,0.362-0.727,0.907-0.727c0.909,0,1.272,0.908,1.272,1.634s-0.363,1.271-0.546,1.634
		c-0.362,0.183-0.544,0.183-0.907,0.183c-0.544,0.181-1.634,0.544-2.361,0.725c-0.181,0.363-0.544,0.182-0.726,0
		c-0.182-0.362-1.089-1.452-1.997-2.359c0,0.544-0.182,2.178-0.182,2.723c0,0.908-0.727,3.995-3.086,6.718
		c-2.179,2.361-5.265,3.451-7.445,3.451C89.698,30.173,87.882,27.086,87.882,23.818L87.882,23.818z"/>
	<path fill-rule="evenodd" clip-rule="evenodd" fill="#9B3B46" d="M154.518,27.813c0.183,1.452,0.364,3.813,2.18,4.539
		c1.271,0.363,2.359,0.363,2.723,0.363c0.363,0,0.363,0,0.363,0.181s-0.363,0.363-0.908,0.363c-0.908,0-5.447-0.182-7.081-0.182
		c-0.908-0.181-1.09-0.362-1.09-0.544c0-0.181,0-0.181,0.182-0.181c0.362-0.181,0.362-0.908,0.181-1.634l-1.997-22.151h-0.182
		l-10.349,22.333c-0.908,1.816-0.908,2.361-1.271,2.361c-0.364,0-0.544-0.544-1.453-1.997c-1.09-2.179-4.721-9.624-4.902-9.986
		c-0.364-0.727-5.083-11.077-5.629-12.347h-0.181l-1.635,19.973c0,0.726,0,1.452,0,2.179c0,0.725,0.364,1.271,1.089,1.452
		c0.727,0,1.272,0.182,1.634,0.182c0,0,0.182,0,0.182,0.181c0,0.363-0.182,0.363-0.727,0.363c-1.453,0-3.631-0.182-3.994-0.182
		c-0.364,0-2.361,0.182-3.451,0.182c-0.363,0-0.726,0-0.726-0.363c0-0.181,0.182-0.181,0.362-0.181c0.363,0,0.728,0,1.271-0.182
		c1.453-0.181,1.635-1.997,1.816-3.63l2.906-27.963c0.181-0.544,0.362-0.727,0.544-0.727c0.181,0,0.364,0.183,0.727,0.545
		l12.891,27.054l12.528-27.054c0.182-0.363,0.182-0.545,0.545-0.545c0.363,0,0.363,0.364,0.545,1.09L154.518,27.813L154.518,27.813z
		"/>
	<path fill-rule="evenodd" clip-rule="evenodd" fill="#9B3B46" d="M165.776,16.011c0-5.63,0-6.719,0-7.809
		c0-1.271-0.363-1.997-1.634-2.178c-0.181,0-0.908-0.182-1.089-0.182c-0.182,0-0.364,0-0.364-0.181c0-0.182,0.182-0.363,0.545-0.363
		c1.634,0,3.995,0.182,4.176,0.182c0.182,0,7.445,0,8.353,0c0.544,0,1.271-0.182,1.452-0.182c0.182,0,0.363-0.181,0.545-0.181
		c0.181,0,0.181,0.181,0.181,0.363s-0.181,0.726-0.363,1.634c0,0.363,0,1.997-0.181,2.543c0,0.181,0,0.363-0.182,0.363
		c-0.182,0-0.363-0.182-0.363-0.544c0-0.183,0-0.909-0.182-1.272c-0.182-0.544-0.545-1.089-2.542-1.271
		c-0.727,0-4.54-0.181-5.084-0.181c0,0-0.182,0.181-0.182,0.362v10.169c0,0.362,0,0.544,0.182,0.544c0.545,0,5.084,0,5.811-0.183
		c0.908,0,1.452-0.181,1.815-0.544c0.182-0.182,0.363-0.363,0.544-0.363c0,0,0.182,0,0.182,0.181c0,0.182-0.182,0.909-0.364,2.179
		c0,0.727-0.181,1.998-0.181,2.361c0,0.181,0,0.544-0.182,0.544c-0.182,0-0.363,0-0.363-0.182c0-0.363,0-0.726,0-1.271
		c-0.182-0.545-0.544-1.09-1.998-1.271c-0.907-0.182-4.539-0.182-5.083-0.182c-0.182,0-0.364,0-0.364,0.182v3.268
		c0,1.271,0,5.629,0,6.355c0.182,2.542,0.727,2.904,4.357,2.904c0.909,0,2.542,0,3.45-0.362c0.908-0.363,1.271-1.089,1.634-2.542
		c0-0.545,0.182-0.545,0.363-0.545c0.182,0,0.182,0.181,0.182,0.545c0,0.181-0.363,2.723-0.545,3.449
		c-0.181,1.09-0.545,1.09-1.998,1.09c-5.447,0-7.807-0.364-8.897-0.364c-0.181,0-0.727,0.182-1.452,0.182c-0.727,0-1.634,0-2.179,0
		c-0.363,0-0.544,0-0.544-0.363c0,0,0-0.181,0.363-0.181c0.182,0,0.727,0,1.089-0.182c0.727-0.181,0.909-0.908,0.909-1.997
		c0.181-1.452,0.181-4.357,0.181-7.989V16.011L165.776,16.011z"/>
	<path fill-rule="evenodd" clip-rule="evenodd" fill="#9B3B46" d="M190.47,22.547c0,5.447,0,7.808,0.728,8.534
		c0.543,0.544,1.45,0.907,4.356,0.907c1.996,0,3.63-0.182,4.356-1.09c0.546-0.725,0.907-1.634,1.091-2.36
		c0-0.181,0-0.362,0.181-0.362c0.182,0,0.182,0.181,0.182,0.544s-0.182,2.542-0.362,3.631c-0.364,0.908-0.545,1.09-2.36,1.09
		c-5.267,0-7.628-0.364-9.805-0.364c-0.184,0-0.727,0.182-1.455,0.182c-0.725,0-1.451,0-1.996,0c-0.363,0-0.727,0-0.727-0.363
		c0,0,0.181-0.181,0.363-0.181c0.363,0,0.727,0,1.088-0.182c0.727-0.181,0.909-0.908,1.09-1.997
		c0.181-1.452,0.181-4.357,0.181-7.989v-6.536c0-5.63,0-6.719-0.181-7.809c0-1.271-0.363-1.997-1.452-2.178
		c-0.363,0-0.909-0.182-1.271-0.182c-0.182,0-0.364,0-0.364-0.181c0-0.182,0.182-0.363,0.727-0.363c1.635,0,3.812,0.182,3.996,0.182
		c0.182,0,2.904-0.182,3.992-0.182c0.365,0,0.546,0.182,0.546,0.363c0,0.181-0.181,0.181-0.181,0.181
		c-0.365,0-0.908,0.182-1.271,0.182c-1.091,0.181-1.453,0.727-1.453,2.178c0,1.09,0,2.179,0,7.809V22.547L190.47,22.547z"/>
	<path fill-rule="evenodd" clip-rule="evenodd" fill="#9B3B46" d="M211.714,22.547c0,3.632,0,6.537,0.181,7.989
		c0.182,1.089,0.364,1.816,1.452,1.997c0.546,0.182,1.272,0.182,1.635,0.182c0.181,0,0.181,0.181,0.181,0.181
		c0,0.181-0.181,0.363-0.543,0.363c-1.998,0-4.178-0.182-4.358-0.182c-0.182,0-2.542,0.182-3.631,0.182
		c-0.364,0-0.545,0-0.545-0.363c0,0,0-0.181,0.181-0.181c0.364,0,0.727,0,1.09-0.182c0.728-0.181,0.908-0.908,1.09-1.997
		c0.181-1.452,0.181-4.357,0.181-7.989v-6.536c0-5.63,0-6.719,0-7.809c-0.181-1.271-0.543-1.997-1.271-2.178
		c-0.363,0-0.909-0.182-1.09-0.182s-0.362,0-0.362-0.181c0-0.182,0.182-0.363,0.543-0.363c1.272,0,3.633,0.182,3.814,0.182
		c0.181,0,2.36-0.182,3.449-0.182c0.364,0,0.545,0.182,0.545,0.363c0,0.181-0.181,0.181-0.181,0.181
		c-0.364,0-0.546,0.182-0.908,0.182c-1.09,0.181-1.271,0.727-1.452,2.178c0,1.09,0,2.179,0,7.809V22.547L211.714,22.547z"/>
	<path fill-rule="evenodd" clip-rule="evenodd" fill="#9B3B46" d="M225.332,28.176c0.182,3.086,0.543,3.995,1.453,4.357
		c0.727,0.182,1.451,0.182,1.815,0.182c0.182,0,0.362,0.181,0.362,0.181c0,0.363-0.181,0.363-0.727,0.363
		c-1.996,0-3.449-0.182-3.812-0.182c-0.364,0-1.817,0.182-3.451,0.182c-0.362,0-0.543,0-0.543-0.363c0,0,0-0.181,0.181-0.181
		c0.362,0,0.907,0,1.453-0.182c0.907-0.181,1.088-1.271,1.088-4.72V6.75c0-1.453,0.182-1.816,0.546-1.816
		c0.181,0,0.908,0.727,1.27,1.09c0.546,0.727,5.993,6.537,11.441,12.709c3.63,3.813,7.624,8.353,8.714,9.624L244.76,9.656
		c0-2.543-0.181-3.268-1.453-3.632c-0.545,0-1.453-0.182-1.635-0.182c-0.363,0-0.363,0-0.363-0.181c0-0.182,0.363-0.363,0.726-0.363
		c1.635,0,3.451,0.182,3.813,0.182c0.364,0,1.999,0,3.452,0c0.361,0,0.724,0,0.724,0.182c0,0.181-0.181,0.363-0.362,0.363
		c-0.181,0-0.545,0-0.906,0c-1.272,0.364-1.454,1.089-1.454,3.268l-0.361,21.244c0,2.36-0.184,2.906-0.364,2.906
		c-0.363,0-0.728-0.364-2.724-2.36c-0.364-0.364-5.629-5.629-9.441-9.987c-4.176-4.54-5.629-6.537-8.536-10.168L225.332,28.176
		L225.332,28.176z"/>
	<path fill-rule="evenodd" clip-rule="evenodd" fill="#9B3B46" d="M260.375,20.004c0,3.995,0,7.263,0,7.99
		c0,0.908,0.181,2.542,0.363,2.904c0.545,0.727,1.997,1.453,6.173,1.453c3.449,0,6.537-1.271,8.716-3.449
		c1.999-1.816,2.906-5.448,2.906-8.716c0-4.721-1.999-7.809-3.45-9.441c-3.45-3.632-7.626-4.177-11.985-4.177
		c-0.725,0-1.996,0.182-2.359,0.363c-0.183,0.181-0.363,0.363-0.363,0.727c0,1.271,0,4.902,0,7.807V20.004L260.375,20.004z
		 M257.288,16.011c0-5.63,0-6.719,0-7.809c-0.181-1.271-0.362-1.997-1.635-2.178c-0.361,0-0.907-0.182-1.27-0.182
		c-0.184,0-0.184,0-0.184-0.181c0-0.182,0.184-0.363,0.546-0.363c1.634,0,3.813,0.182,3.994,0.182c0.546,0,2.726-0.182,4.903-0.182
		c3.632,0,10.35-0.181,14.708,4.358c1.815,1.814,3.45,4.902,3.45,9.26c0,4.721-1.817,8.17-3.813,10.349
		c-1.635,1.816-4.903,4.358-11.077,4.358c-3.087,0-7.806-0.545-8.171-0.545c-0.181,0-2.36,0.182-3.448,0.182
		c-0.364,0-0.546,0-0.546-0.363c0,0,0-0.181,0.182-0.181c0.364,0,0.726,0,1.09-0.182c0.727-0.181,0.908-0.908,1.09-1.997
		c0.181-1.452,0.181-4.357,0.181-7.989V16.011L257.288,16.011z"/>
	<path fill-rule="evenodd" clip-rule="evenodd" fill="#9B3B46" d="M298.142,21.094c0.181,0,0.181-0.182,0.181-0.364l-3.449-9.804
		c-0.182-0.545-0.364-0.545-0.545,0l-3.269,9.804c0,0.182,0,0.364,0.181,0.364H298.142L298.142,21.094z M294.329,6.388
		c0.545-1.271,0.726-1.454,0.907-1.454c0.181,0,0.363,0.182,0.727,1.271c0.545,1.453,6.355,16.706,8.535,22.152
		c1.269,3.268,2.36,3.995,3.086,4.176c0.543,0.182,1.09,0.182,1.451,0.182c0.184,0,0.364,0,0.364,0.181
		c0,0.363-0.364,0.363-0.726,0.363c-0.547,0-3.269,0-5.63,0c-0.726-0.182-1.091-0.182-1.091-0.363s0-0.181,0.184-0.181
		c0.182-0.182,0.362-0.363,0.182-1.09l-3.269-9.078c-0.182-0.182-0.182-0.182-0.364-0.182h-7.807c-0.181,0-0.363,0.182-0.363,0.363
		l-2.178,6.537c-0.364,0.909-0.545,1.816-0.545,2.36c0,0.727,0.726,1.09,1.452,1.09h0.181c0.365,0,0.546,0.181,0.546,0.181
		c0,0.363-0.364,0.363-0.546,0.363c-0.907,0-2.541-0.182-2.905-0.182c-0.362,0-2.358,0.182-4.176,0.182
		c-0.362,0-0.725,0-0.725-0.363c0,0,0.182-0.181,0.362-0.181c0.362,0,0.907,0,1.088,0c1.635-0.363,2.361-1.634,3.088-3.45
		L294.329,6.388L294.329,6.388z"/>
</g>
</svg>
