<?xml version="1.0" encoding="utf-8"?>
<!-- Generator: Adobe Illustrator 14.0.0, SVG Export Plug-In . SVG Version: 6.00 Build 43363)  -->
<!DOCTYPE svg PUBLIC "-//W3C//DTD SVG 1.1//EN" "http://www.w3.org/Graphics/SVG/1.1/DTD/svg11.dtd">
<svg version="1.1" id="Layer_1" xmlns="http://www.w3.org/2000/svg" xmlns:xlink="http://www.w3.org/1999/xlink" x="0px" y="0px"
	 width="480.167px" height="100.188px" viewBox="0 0 480.167 100.188" enable-background="new 0 0 480.167 100.188"
	 xml:space="preserve">
<rect fill="none" width="480.167" height="100.188"/>
<g>
	<path d="M12.632,12.437h10.35c9.458,0,13.637,2.985,13.637,9.057c0,5.276-4.18,8.86-12.542,8.86H12.632V12.437z M0.088,72.159
		h25.383c13.337,0,26.676-4.776,26.676-20.108c0-9.054-6.37-16.026-15.23-17.018V34.83c7.266-2.187,12.243-7.46,12.243-15.426
		c0-12.84-10.95-17.716-21.6-17.716H0.088V72.159z M12.632,41.104h12.043c10.151,0,14.931,2.583,14.931,9.951
		c0,9.258-8.959,10.353-15.43,10.353H12.632V41.104z"/>
	<path d="M60.335,0.02h11.944v72.139H60.335V0.02z"/>
	<path d="M92.209,48.269c0-7.465,5.275-14.333,14.037-14.333c8.758,0,14.033,6.867,14.033,14.333
		c0,7.467-5.275,14.334-14.033,14.334C97.484,62.604,92.209,55.736,92.209,48.269z M80.266,48.269
		c0,15.033,11.545,25.085,25.981,25.085c14.43,0,25.977-10.052,25.977-25.085c0-15.03-11.546-25.083-25.977-25.083
		C91.811,23.186,80.266,33.239,80.266,48.269z"/>
	<path d="M149.566,48.269c0-7.465,5.277-14.333,14.036-14.333c8.758,0,14.033,6.867,14.033,14.333
		c0,7.467-5.275,14.334-14.033,14.334C154.844,62.604,149.566,55.736,149.566,48.269z M137.623,48.269
		c0,15.033,11.547,25.085,25.98,25.085c14.43,0,25.978-10.052,25.978-25.085c0-15.03-11.547-25.083-25.978-25.083
		C149.169,23.186,137.623,33.239,137.623,48.269z"/>
	<path d="M196.872,24.379h11.346v7.465h0.197c2.092-4.475,6.672-8.659,14.633-8.659c7.367,0,12.443,2.887,14.931,8.861
		c3.484-6.075,8.558-8.861,15.726-8.861c12.742,0,17.219,9.058,17.219,20.502v28.471h-11.943V45.086
		c0-5.974-1.79-11.149-8.856-11.149c-7.466,0-10.255,6.171-10.255,12.339v25.883h-11.941V43.688c0-5.87-2.392-9.751-8.164-9.751
		c-7.862,0-10.946,5.774-10.946,12.146v26.077h-11.945V24.379z"/>
	<path d="M320.221,48.269c0,7.467-5.275,14.334-14.034,14.334c-8.758,0-14.034-6.868-14.034-14.334
		c0-7.465,5.276-14.333,14.034-14.333C314.945,33.937,320.221,40.804,320.221,48.269z M280.605,72.159h11.347v-7.167h0.2
		c3.484,5.771,9.754,8.362,16.425,8.362c14.729,0,23.587-10.95,23.587-25.085c0-14.13-9.456-25.083-23.091-25.083
		c-8.958,0-13.737,4.184-16.224,7.267h-0.3V0.02h-11.944V72.159z"/>
	<path d="M349.508,43.495c0.898-6.871,5.276-11.349,12.344-11.349c7.465,0,12.043,4.378,12.142,11.349H349.508z M385.939,52.448
		v-3.28c0-16.62-9.058-25.982-22.397-25.982c-14.432,0-25.979,10.054-25.979,25.083c0,15.033,11.547,25.085,25.979,25.085
		c7.565,0,14.631-2.692,20.206-9.558l-8.559-6.466c-2.983,3.682-6.868,6.466-12.84,6.466c-6.669,0-12.045-4.275-12.842-11.349
		H385.939z"/>
	<path d="M393.728,24.379h11.941v7.566h0.203c2.587-5.473,7.861-8.76,14.133-8.76c1.494,0,2.888,0.301,4.278,0.698v11.547
		c-1.991-0.5-3.882-0.896-5.771-0.896c-11.248,0-12.843,9.458-12.843,12.045v25.579h-11.941V24.379z"/>
	<path d="M451.002,33.937c8.661,0,14.135,5.774,14.135,14.033c0,7.969-5.374,14.038-14.233,14.038
		c-8.063,0-14.034-6.271-14.034-13.836C436.869,39.711,442.642,33.937,451.002,33.937z M465.137,24.379v7.17h-0.199
		c-3.482-5.775-9.754-8.364-16.424-8.364c-14.732,0-23.589,10.954-23.589,25.083c0,13.536,9.456,24.488,23.787,24.488
		c5.972,0,12.145-2.289,15.629-6.967h0.197v3.485c0,9.456-3.584,16.021-15.126,16.021c-6.672,0-11.647-2.486-16.427-6.869
		l-7.167,9.757c6.77,5.974,14.832,7.861,23.692,7.861c18.612,0,26.974-10.947,26.974-28.166V24.379H465.137z"/>
</g>
</svg>
