<?xml version="1.0" encoding="utf-8"?>
<!-- Generator: Adobe Illustrator 14.0.0, SVG Export Plug-In . SVG Version: 6.00 Build 43363)  -->
<!DOCTYPE svg PUBLIC "-//W3C//DTD SVG 1.1//EN" "http://www.w3.org/Graphics/SVG/1.1/DTD/svg11.dtd">
<svg version="1.1" id="Layer_1" xmlns="http://www.w3.org/2000/svg" xmlns:xlink="http://www.w3.org/1999/xlink" x="0px" y="0px"
	 width="793.701px" height="79.37px" viewBox="0 0 793.701 79.37" enable-background="new 0 0 793.701 79.37" xml:space="preserve">
<g>
	<path fill="#174A7C" d="M53.303,22.685c-3.1-3.7-7.6-5.8-13.4-5.8c-11.8,0-20.5,9.6-20.5,22.799c0,13.201,8.7,22.801,20,22.801
		c6.3,0,11.4-2.8,14.6-7.6l13,9.699c-5.9,8.4-15.9,12.301-25.6,12.301c-22.1,0-38.2-14.5-38.2-37.201
		c0-22.699,16.1-37.199,38.2-37.199c7.9,0,17.9,2.7,23.9,10.4L53.303,22.685z"/>
	<path fill="#174A7C" d="M97.803,4.285h12.9l30.8,70.8h-17.6l-6.1-15h-27.5l-5.9,15h-17.2L97.803,4.285z M103.803,24.885l-8.6,22
		h17.3L103.803,24.885z"/>
	<path fill="#174A7C" d="M152.103,18.085h-20.2v-13.8h56v13.8h-20.2v57h-15.6V18.085z"/>
	<path fill="#174A7C" d="M209.903,4.285h12.9l30.8,70.8h-17.6l-6.1-15h-27.5l-5.9,15h-17.2L209.903,4.285z M215.903,24.885l-8.6,22
		h17.3L215.903,24.885z"/>
	<path fill="#174A7C" d="M259.302,4.285h15.6v56.4h28.9v14.399h-44.5V4.285z"/>
	<path fill="#174A7C" d="M321.702,44.885l-26.6-40.601h19.4l15,26.5l15.9-26.5h18.5l-26.6,40.601v30.199h-15.6V44.885z"/>
	<path fill="#174A7C" d="M401.102,21.585c-2.5-3.2-7.5-4.7-11.3-4.7c-4.4,0-10.5,2-10.5,7.3c0,12.9,32.599,4.6,32.599,29.4
		c0,15.801-12.699,23.301-27.299,23.301c-9.1,0-17.1-2.7-23.8-8.9l11.1-12.2c3.2,4.2,8.4,6.7,13.6,6.7c5.1,0,10.8-2.4,10.8-7.4
		c0-13-33.2-6-33.2-29.6c0-15.1,13.1-23,27-23c8,0,15.7,2.1,21.699,7.4L401.102,21.585z"/>
	<path fill="#174A7C" d="M437.201,18.085H417v-13.8h56v13.8h-20.199v57h-15.6V18.085z"/>
	<path fill="#174A7C" d="M538.801,70.485c-8.201,4.7-17.201,6.4-26.4,6.4c-21.602,0-36.602-15.601-36.602-37.201
		c0-21.599,15-37.199,36.602-37.199c10.5,0,19,3.2,25.5,9.8l-4.801,5c-4.299-5.2-13-8.8-20.699-8.8c-18.5,0-30,13.6-30,31.199
		c0,17.601,11.5,31.201,30,31.201c7.6,0,14.4-1,19.799-4.2v-23.8h-17v-6h23.602V70.485z"/>
	<path fill="#174A7C" d="M552.297,4.285h18.6c5.6,0,25.199,0,25.199,18.6c0,13.5-10.299,17.2-18.1,18.2l20.6,34h-7.5l-19.898-33.6
		h-12.301v33.6h-6.6V4.285z M558.896,35.485h14c13.9,0,16.6-7.7,16.6-12.6s-2.699-12.6-16.6-12.6h-14V35.485z"/>
	<path fill="#174A7C" d="M640.498,2.485c21.6,0,36.6,15.6,36.6,37.199c0,21.601-15,37.201-36.6,37.201s-36.6-15.601-36.6-37.201
		C603.898,18.085,618.898,2.485,640.498,2.485z M640.498,70.885c18.5,0,30-13.601,30-31.201c0-17.599-11.5-31.199-30-31.199
		s-30,13.6-30,31.199C610.498,57.285,621.998,70.885,640.498,70.885z"/>
	<path fill="#174A7C" d="M737.197,47.985c0,15.1-6.5,28.9-25.799,28.9c-19.301,0-25.801-13.801-25.801-28.9v-43.7h6.6v42
		c0,10.101,2.701,24.601,19.201,24.601s19.199-14.5,19.199-24.601v-42h6.6V47.985z"/>
	<path fill="#174A7C" d="M747.297,4.285h20.4c10,0,22.801,3.9,22.801,18.7c0,12.8-10.201,18.5-21.301,18.5h-15.301v33.6h-6.6V4.285z
		 M753.896,35.485h15c7.5,0,15-3.2,15-12.5c0-9.1-7.799-12.7-15.398-12.7h-14.602V35.485z"/>
</g>
</svg>
