<?xml version="1.0" encoding="utf-8"?>
<!-- Generator: Adobe Illustrator 14.0.0, SVG Export Plug-In . SVG Version: 6.00 Build 43363)  -->
<!DOCTYPE svg PUBLIC "-//W3C//DTD SVG 1.1//EN" "http://www.w3.org/Graphics/SVG/1.1/DTD/svg11.dtd">
<svg version="1.1" id="Layer_1" xmlns="http://www.w3.org/2000/svg" xmlns:xlink="http://www.w3.org/1999/xlink" x="0px" y="0px"
	 width="594.739px" height="185.682px" viewBox="0 0 594.739 185.682" enable-background="new 0 0 594.739 185.682"
	 xml:space="preserve">
<g>
	<polygon points="55.886,22.118 55.886,18.806 18.212,18.806 18.212,45.304 52.625,45.304 52.625,41.992 21.512,41.992 
		21.512,22.118 	"/>
	<polygon points="3.304,3.425 55.886,3.425 55.886,0.13 0,0.13 0,98.771 3.304,98.771 	"/>
	<polygon points="52.631,63.987 52.631,60.691 18.212,60.691 18.212,98.771 21.512,98.771 21.512,63.987 	"/>
	<path d="M163.678,0v3.305h24.089c14.784,0,26.806,12.042,26.806,26.846c0,6.628-2.693,13.05-7.574,18.074l-1.127,1.14l1.127,1.155
		c4.881,5.029,7.574,11.446,7.574,18.068c0,14.818-12.021,26.875-26.806,26.875h-24.089v3.308h24.089
		c16.612,0,30.108-13.543,30.108-30.183c0-7.013-2.733-13.745-7.579-19.224c4.846-5.461,7.579-12.198,7.579-19.214
		c0-16.623-13.496-30.15-30.108-30.15H163.678z"/>
	<rect x="143.314" y="0.125" width="3.313" height="98.646"/>
	<path d="M163.673,57.115l0.005,3.297l22.796-0.043c4.698,0,8.372,3.613,8.372,8.219c0,4.632-3.754,8.41-8.372,8.41h-22.796v3.294
		h22.796c6.447,0,11.676-5.244,11.676-11.704c0-6.462-5.115-11.52-11.676-11.52C186.468,57.068,163.673,57.115,163.673,57.115"/>
	<path d="M163.678,18.635v3.309h22.796c4.698,0,8.372,3.605,8.372,8.217c0,4.204-3.155,7.774-7.353,8.315l-23.815-0.017v3.3h24.038
		c6.042-0.75,10.434-5.734,10.434-11.599c0-6.453-5.121-11.525-11.676-11.525H163.678z"/>
	<rect x="231.918" y="0.125" width="3.304" height="98.646"/>
	<path d="M270.836,48.9c8.224,0,14.904-6.744,14.904-15.042c0-8.293-6.681-15.048-14.904-15.048h-20.159v3.305h20.159
		c6.396,0,11.605,5.268,11.605,11.743c0,6.479-5.21,11.754-11.605,11.754h-20.159v53.158h3.31V48.9H270.836z"/>
	<polygon points="84.046,62.619 104.003,62.619 94.555,26.841 91.021,26.841 99.722,59.308 81.515,59.308 70.837,98.771 
		74.196,98.771 	"/>
	<polygon points="51.275,98.771 54.687,98.771 82.91,0.125 79.499,0.125 	"/>
	<polygon points="102.888,0.13 131.167,98.771 134.635,98.771 106.404,0.13 	"/>
	<polygon points="104.749,75.156 111.464,98.771 114.807,98.771 108.274,75.156 	"/>
	<path d="M354.366,39.173v20.549c0,21.521,17.479,39.049,38.971,39.049v-3.308c-19.676,0-35.656-16.036-35.656-35.741V39.173
		c0-19.715,15.99-35.748,35.678-35.748c19.666,0,35.66,16.033,35.66,35.748v29.312c-4.646-3.546-37.367-29.012-37.367-29.012v3.97
		l40.666,31.73l0.012-36c0-21.533-17.479-39.048-38.971-39.048C371.854,0.125,354.366,17.64,354.366,39.173"/>
	<path d="M391.651,76.426c-8.549-0.87-15.336-7.913-15.336-16.749l0.023-20.475c0-9.404,7.635-17.059,17.025-17.059
		c9.367,0,17.016,7.654,17.016,17.059l-0.021,5.683l3.303,0.015l0.01-5.687c0-11.235-9.109-20.373-20.307-20.373
		c-11.213,0-20.324,9.138-20.324,20.362l-0.023,20.475c0,11.236,9.096,20.389,20.273,20.389h1.658V68.157l37.369,30.621v-4.598
		l-40.666-32.712V76.426z"/>
	<rect x="319.186" y="0.125" width="3.307" height="98.646"/>
	<rect x="337.954" y="0.125" width="3.305" height="98.646"/>
	<path d="M287.829,63.476c10.9-5.82,17.978-17.16,17.978-29.617c0-18.591-15.113-33.729-33.677-33.729h-21.447v3.295h21.447
		c16.753,0,30.375,13.656,30.375,30.434c0,11.759-6.861,22.573-17.5,27.562l-1.521,0.712l18,36.639h3.674L287.829,63.476z"/>
	<polygon points="264.8,66.665 280.557,98.771 284.229,98.771 268.479,66.665 	"/>
	<polygon points="592.663,22.118 592.663,18.806 555.114,18.806 555.114,41.756 592.663,41.756 592.663,38.442 558.426,38.442 
		558.426,22.118 	"/>
	<polygon points="558.432,76.756 558.432,60.423 592.663,60.423 592.663,57.126 555.114,57.126 555.114,80.06 592.663,80.06 
		592.663,76.756 	"/>
	<polygon points="592.663,3.425 592.663,0.13 536.893,0.13 536.893,98.789 592.663,98.789 592.663,95.48 540.204,95.48 
		540.204,3.425 	"/>
	<path d="M518.932,0.13v59.599c0,19.691-16.014,35.734-35.689,35.734c-19.662,0-35.67-16.043-35.67-35.734V0.13h-3.297v59.599
		c0,21.521,17.477,39.042,38.967,39.042c21.512,0,38.992-17.521,38.992-39.042V0.13H518.932z"/>
	<path d="M500.266,0.13v59.553c0,9.408-7.648,17.065-17.027,17.065s-17.006-7.657-17.006-17.065V0.13h-3.301v59.553
		c0,11.225,9.111,20.369,20.307,20.369c11.213,0,20.324-9.145,20.324-20.369V0.13H500.266z"/>
	<g>
		<path d="M21.303,162.745c0,1.974-0.29,3.823-0.869,5.546c-0.58,1.725-1.434,3.166-2.562,4.324
			c-0.784,0.815-1.732,1.449-2.844,1.904c-1.112,0.453-2.405,0.681-3.877,0.681c-1.348,0-2.695-0.321-4.042-0.964
			c-1.348-0.641-2.366-1.558-3.055-2.749l-0.282,3.103H0.247v-33.935h3.995v12.925c0.313-0.532,0.729-1.01,1.245-1.434
			c0.517-0.423,1.088-0.775,1.716-1.057c0.626-0.283,1.276-0.502,1.95-0.658c0.673-0.156,1.34-0.235,1.998-0.235
			c1.41,0,2.656,0.22,3.737,0.658c1.081,0.438,2.013,1.019,2.796,1.739c1.19,1.159,2.091,2.624,2.703,4.395
			C20.998,158.758,21.303,160.678,21.303,162.745z M17.214,162.698c0-1.097-0.102-2.186-0.305-3.267
			c-0.205-1.08-0.557-2.06-1.058-2.938c-0.501-0.877-1.191-1.582-2.068-2.115c-0.878-0.531-1.974-0.799-3.29-0.799
			c-0.878,0-1.622,0.149-2.233,0.447c-0.611,0.298-1.151,0.666-1.621,1.104c-1.003,0.878-1.692,1.982-2.068,3.314
			s-0.564,2.749-0.564,4.253s0.188,2.923,0.564,4.253c0.376,1.333,1.065,2.438,2.068,3.314c0.47,0.439,1.01,0.807,1.621,1.104
			c0.611,0.299,1.355,0.447,2.233,0.447c1.316,0,2.412-0.266,3.29-0.799c0.876-0.533,1.566-1.238,2.068-2.115
			c0.501-0.877,0.853-1.856,1.058-2.938C17.112,164.884,17.214,163.795,17.214,162.698z"/>
		<path d="M40.572,154.709c-0.345-0.063-0.713-0.109-1.104-0.142c-0.392-0.03-0.76-0.047-1.104-0.047
			c-0.94,0-1.794,0.181-2.562,0.54c-0.768,0.361-1.418,0.808-1.951,1.34c-0.47,0.47-0.854,1.01-1.151,1.621
			c-0.298,0.611-0.517,1.262-0.658,1.951s-0.235,1.379-0.282,2.068c-0.047,0.689-0.071,1.347-0.071,1.973v10.576h-3.948v-23.783
			h3.525l0.329,4.184c0.626-1.473,1.59-2.562,2.891-3.267c1.3-0.704,2.702-1.058,4.206-1.058c0.626,0,1.253,0.047,1.88,0.141
			V154.709z"/>
		<path d="M65.247,174.354c-0.439,0.22-0.862,0.368-1.269,0.446s-0.862,0.117-1.363,0.117c-1.065,0-1.903-0.352-2.515-1.057
			c-0.611-0.705-0.917-1.559-0.917-2.563H59.09c-0.689,1.191-1.716,2.139-3.079,2.844s-2.891,1.058-4.583,1.058
			c-1.379,0-2.578-0.212-3.595-0.634c-1.019-0.424-1.865-0.979-2.538-1.669c-0.674-0.688-1.183-1.473-1.528-2.351
			c-0.345-0.877-0.517-1.77-0.517-2.679c0-0.752,0.133-1.551,0.399-2.397c0.266-0.846,0.729-1.621,1.386-2.326
			c0.658-0.705,1.528-1.308,2.608-1.809c1.081-0.502,2.436-0.8,4.066-0.894l7.238-0.423v-1.739c0-0.595-0.07-1.222-0.211-1.88
			s-0.478-1.237-1.011-1.739c-0.407-0.376-0.917-0.673-1.527-0.893s-1.403-0.329-2.374-0.329c-1.097,0-1.99,0.134-2.679,0.399
			c-0.69,0.267-1.238,0.604-1.645,1.011c-0.784,0.783-1.175,1.738-1.175,2.867h-3.901c0.031-1.097,0.227-2.045,0.587-2.844
			c0.36-0.799,0.854-1.512,1.48-2.139c0.814-0.846,1.872-1.48,3.172-1.903s2.687-0.635,4.16-0.635c2.318,0,4.151,0.431,5.499,1.292
			c1.347,0.863,2.303,1.951,2.867,3.268c0.47,1.097,0.705,2.318,0.705,3.666v11.515c0,0.627,0.117,1.05,0.352,1.269
			c0.235,0.22,0.556,0.329,0.964,0.329c0.094,0,0.203,0,0.329,0c0.125,0,0.235-0.015,0.329-0.047l0.376-0.094V174.354z
			 M58.949,163.121l-6.392,0.377c-0.596,0.031-1.207,0.133-1.833,0.305c-0.627,0.173-1.191,0.424-1.692,0.752
			c-0.501,0.329-0.909,0.76-1.222,1.293c-0.313,0.533-0.47,1.175-0.47,1.927c0,1.065,0.36,2.014,1.081,2.843
			c0.72,0.831,1.927,1.246,3.619,1.246c0.909,0,1.793-0.156,2.656-0.47c0.861-0.313,1.605-0.8,2.232-1.457
			c0.72-0.721,1.237-1.552,1.551-2.491c0.313-0.939,0.47-1.91,0.47-2.914V163.121z"/>
		<path d="M86.349,174.59v-15.088c0-1.785-0.399-3.18-1.199-4.183c-0.799-1.003-2.138-1.504-4.019-1.504
			c-1.159,0-2.178,0.337-3.055,1.011c-0.878,0.674-1.583,1.559-2.115,2.655c-0.408,0.878-0.65,1.88-0.729,3.008
			c-0.079,1.128-0.117,2.146-0.117,3.056v11.045h-3.995v-23.783h3.478l0.329,3.572c0.313-0.688,0.736-1.292,1.269-1.809
			c0.533-0.518,1.128-0.947,1.786-1.293c0.658-0.344,1.347-0.611,2.068-0.799s1.41-0.282,2.068-0.282
			c2.726,0,4.778,0.769,6.157,2.304c1.378,1.535,2.068,3.682,2.068,6.438v15.651H86.349z"/>
		<path d="M113.844,174.59l-0.282-3.103c-0.689,1.191-1.708,2.108-3.055,2.749c-1.348,0.643-2.695,0.964-4.042,0.964
			c-1.473,0-2.766-0.228-3.877-0.681c-1.113-0.455-2.061-1.089-2.843-1.904c-1.128-1.158-1.982-2.6-2.562-4.324
			c-0.581-1.723-0.87-3.572-0.87-5.546c0-2.067,0.305-3.987,0.917-5.757c0.611-1.771,1.511-3.235,2.703-4.395
			c0.783-0.721,1.715-1.301,2.796-1.739s2.326-0.658,3.736-0.658c0.658,0,1.323,0.079,1.998,0.235
			c0.673,0.156,1.323,0.375,1.951,0.658c0.626,0.281,1.198,0.634,1.715,1.057c0.517,0.424,0.932,0.901,1.246,1.434v-12.925h3.995
			v33.935H113.844z M113.609,162.698c0-1.504-0.188-2.921-0.564-4.253s-1.065-2.437-2.068-3.314
			c-0.47-0.438-1.011-0.806-1.622-1.104s-1.356-0.447-2.232-0.447c-1.316,0-2.413,0.268-3.29,0.799
			c-0.877,0.533-1.567,1.238-2.068,2.115c-0.502,0.878-0.854,1.857-1.058,2.938c-0.204,1.081-0.306,2.17-0.306,3.267
			s0.102,2.186,0.306,3.267c0.203,1.081,0.556,2.061,1.058,2.938c0.5,0.877,1.19,1.582,2.068,2.115
			c0.877,0.533,1.974,0.799,3.29,0.799c0.876,0,1.622-0.148,2.232-0.447c0.611-0.297,1.151-0.664,1.622-1.104
			c1.002-0.877,1.692-1.981,2.068-3.314C113.421,165.621,113.609,164.202,113.609,162.698z"/>
		<path d="M143.265,167.68c0,1.035-0.173,1.951-0.517,2.75c-0.345,0.799-0.799,1.496-1.363,2.092
			c-0.909,0.939-2.038,1.621-3.384,2.045c-1.348,0.422-2.805,0.634-4.371,0.634c-1.504,0-2.914-0.196-4.23-0.587
			c-1.316-0.393-2.476-1.089-3.478-2.092c-0.721-0.721-1.285-1.559-1.692-2.515c-0.408-0.956-0.611-1.935-0.611-2.938h3.995
			c0.031,0.815,0.219,1.527,0.564,2.139c0.344,0.61,0.799,1.136,1.363,1.574c0.532,0.407,1.19,0.69,1.974,0.847
			c0.783,0.156,1.551,0.234,2.303,0.234c0.814,0,1.59-0.086,2.327-0.258c0.736-0.172,1.417-0.525,2.044-1.059
			c0.345-0.25,0.626-0.61,0.846-1.08c0.219-0.471,0.329-0.971,0.329-1.504c0-0.909-0.314-1.661-0.94-2.256
			c-0.627-0.596-1.551-0.972-2.773-1.129c-0.251-0.031-0.595-0.078-1.034-0.141c-0.439-0.063-0.909-0.125-1.41-0.188
			c-0.501-0.063-1.01-0.125-1.527-0.188c-0.517-0.063-0.98-0.125-1.387-0.188c-1.786-0.281-3.204-0.963-4.253-2.045
			c-1.05-1.08-1.575-2.529-1.575-4.347c0-0.909,0.195-1.778,0.588-2.608c0.391-0.83,0.853-1.512,1.386-2.045
			c0.783-0.814,1.77-1.457,2.961-1.927c1.19-0.47,2.538-0.705,4.042-0.705c1.598,0,3.055,0.251,4.371,0.752s2.381,1.254,3.196,2.257
			c0.532,0.627,0.947,1.3,1.245,2.021c0.297,0.721,0.447,1.567,0.447,2.538h-3.995c-0.032-0.627-0.181-1.199-0.446-1.716
			c-0.267-0.517-0.572-0.933-0.917-1.245c-0.94-0.846-2.241-1.27-3.901-1.27c-0.47,0-0.909,0.016-1.316,0.047
			c-0.408,0.031-0.893,0.173-1.457,0.424c-0.752,0.313-1.339,0.76-1.762,1.339c-0.423,0.58-0.635,1.198-0.635,1.856
			c0,1.004,0.282,1.732,0.846,2.186c0.564,0.455,1.347,0.76,2.35,0.916c0.658,0.095,1.457,0.197,2.397,0.307
			c0.94,0.109,2.052,0.273,3.337,0.493c1.692,0.282,3.125,1.003,4.3,2.161C142.678,164.422,143.265,165.895,143.265,167.68z"/>
		<path d="M155.109,174.637c0,1.754-0.337,3.242-1.011,4.465c-0.674,1.222-1.873,2.193-3.596,2.914l-1.222-2.209
			c1.222-0.533,2.028-1.191,2.42-1.975c0.392-0.783,0.587-1.849,0.587-3.195h-2.914v-5.5h5.734V174.637z"/>
		<path d="M189.042,174.59l-0.282-3.103c-0.689,1.191-1.708,2.108-3.055,2.749c-1.348,0.643-2.695,0.964-4.042,0.964
			c-1.473,0-2.766-0.228-3.877-0.681c-1.113-0.455-2.061-1.089-2.843-1.904c-1.128-1.158-1.982-2.6-2.562-4.324
			c-0.581-1.723-0.87-3.572-0.87-5.546c0-2.067,0.305-3.987,0.917-5.757c0.611-1.771,1.511-3.235,2.703-4.395
			c0.783-0.721,1.715-1.301,2.796-1.739s2.326-0.658,3.736-0.658c0.658,0,1.323,0.079,1.998,0.235
			c0.673,0.156,1.323,0.375,1.951,0.658c0.626,0.281,1.198,0.634,1.715,1.057c0.517,0.424,0.932,0.901,1.246,1.434v-12.925h3.995
			v33.935H189.042z M188.807,162.698c0-1.504-0.188-2.921-0.564-4.253s-1.065-2.437-2.068-3.314
			c-0.47-0.438-1.011-0.806-1.622-1.104s-1.356-0.447-2.232-0.447c-1.316,0-2.413,0.268-3.29,0.799
			c-0.877,0.533-1.567,1.238-2.068,2.115c-0.502,0.878-0.854,1.857-1.058,2.938c-0.204,1.081-0.306,2.17-0.306,3.267
			s0.102,2.186,0.306,3.267c0.203,1.081,0.556,2.061,1.058,2.938c0.5,0.877,1.19,1.582,2.068,2.115
			c0.877,0.533,1.974,0.799,3.29,0.799c0.876,0,1.622-0.148,2.232-0.447c0.611-0.297,1.151-0.664,1.622-1.104
			c1.002-0.877,1.692-1.981,2.068-3.314C188.619,165.621,188.807,164.202,188.807,162.698z"/>
		<path d="M220.014,161.43c0,0.439,0,0.869,0,1.292s-0.016,0.854-0.047,1.292h-16.826c0,1.098,0.204,2.186,0.611,3.268
			c0.407,1.08,0.971,1.981,1.692,2.702c1.128,1.128,2.585,1.692,4.371,1.692c1.942,0,3.415-0.518,4.418-1.551
			c0.344-0.346,0.626-0.705,0.846-1.082c0.219-0.375,0.407-0.877,0.564-1.504h3.901c-0.157,1.191-0.564,2.303-1.222,3.338
			c-0.658,1.033-1.473,1.879-2.444,2.537c-0.846,0.564-1.786,1.004-2.82,1.316c-1.034,0.313-2.115,0.47-3.243,0.47
			c-1.692,0-3.204-0.321-4.536-0.964c-1.332-0.641-2.452-1.511-3.36-2.607c-1.003-1.159-1.747-2.499-2.232-4.02
			c-0.486-1.52-0.729-3.125-0.729-4.816c0-1.441,0.141-2.797,0.423-4.066c0.282-1.269,0.752-2.451,1.41-3.549
			c0.846-1.44,2.036-2.631,3.572-3.571c1.535-0.94,3.337-1.41,5.405-1.41c1.535,0,2.906,0.274,4.113,0.823
			c1.206,0.548,2.248,1.292,3.125,2.232c0.94,1.033,1.676,2.256,2.209,3.666C219.748,158.327,220.014,159.832,220.014,161.43z
			 M215.925,160.584c0-0.909-0.125-1.787-0.376-2.633c-0.251-0.846-0.611-1.582-1.081-2.209c-0.501-0.658-1.144-1.182-1.927-1.574
			c-0.784-0.392-1.708-0.588-2.773-0.588c-1.097,0-2.044,0.205-2.843,0.611c-0.799,0.408-1.473,0.939-2.021,1.598
			c-0.549,0.658-0.956,1.402-1.222,2.232c-0.267,0.831-0.416,1.686-0.446,2.563H215.925z"/>
		<path d="M243.89,167.68c0,1.035-0.173,1.951-0.517,2.75c-0.345,0.799-0.799,1.496-1.363,2.092
			c-0.909,0.939-2.038,1.621-3.384,2.045c-1.348,0.422-2.805,0.634-4.371,0.634c-1.504,0-2.914-0.196-4.23-0.587
			c-1.316-0.393-2.476-1.089-3.478-2.092c-0.721-0.721-1.285-1.559-1.692-2.515c-0.408-0.956-0.611-1.935-0.611-2.938h3.995
			c0.031,0.815,0.219,1.527,0.564,2.139c0.344,0.61,0.799,1.136,1.363,1.574c0.532,0.407,1.19,0.69,1.974,0.847
			c0.783,0.156,1.551,0.234,2.303,0.234c0.814,0,1.59-0.086,2.327-0.258c0.736-0.172,1.417-0.525,2.044-1.059
			c0.345-0.25,0.626-0.61,0.846-1.08c0.219-0.471,0.329-0.971,0.329-1.504c0-0.909-0.314-1.661-0.94-2.256
			c-0.627-0.596-1.551-0.972-2.773-1.129c-0.251-0.031-0.595-0.078-1.034-0.141c-0.439-0.063-0.909-0.125-1.41-0.188
			c-0.501-0.063-1.01-0.125-1.527-0.188c-0.517-0.063-0.98-0.125-1.387-0.188c-1.786-0.281-3.204-0.963-4.253-2.045
			c-1.05-1.08-1.575-2.529-1.575-4.347c0-0.909,0.195-1.778,0.588-2.608c0.391-0.83,0.853-1.512,1.386-2.045
			c0.783-0.814,1.77-1.457,2.961-1.927c1.19-0.47,2.538-0.705,4.042-0.705c1.598,0,3.055,0.251,4.371,0.752s2.381,1.254,3.196,2.257
			c0.532,0.627,0.947,1.3,1.245,2.021c0.297,0.721,0.447,1.567,0.447,2.538h-3.995c-0.032-0.627-0.181-1.199-0.446-1.716
			c-0.267-0.517-0.572-0.933-0.917-1.245c-0.94-0.846-2.241-1.27-3.901-1.27c-0.47,0-0.909,0.016-1.316,0.047
			c-0.408,0.031-0.893,0.173-1.457,0.424c-0.752,0.313-1.339,0.76-1.762,1.339c-0.423,0.58-0.635,1.198-0.635,1.856
			c0,1.004,0.282,1.732,0.846,2.186c0.564,0.455,1.347,0.76,2.35,0.916c0.658,0.095,1.457,0.197,2.397,0.307
			c0.94,0.109,2.052,0.273,3.337,0.493c1.692,0.282,3.125,1.003,4.3,2.161C243.303,164.422,243.89,165.895,243.89,167.68z"/>
		<path d="M250,145.355v-4.7h4.653v4.7H250z M250.282,174.59v-23.783h4.089v23.783H250.282z"/>
		<path d="M282.946,178.114c0,1.034-0.196,1.95-0.587,2.749c-0.392,0.8-0.87,1.48-1.434,2.045s-1.23,1.025-1.997,1.387
			c-0.769,0.359-1.575,0.642-2.421,0.846c-0.846,0.203-1.708,0.345-2.585,0.424c-0.877,0.077-1.739,0.117-2.585,0.117
			c-0.784,0-1.59-0.04-2.42-0.117c-0.831-0.079-1.638-0.221-2.42-0.424c-0.784-0.204-1.536-0.486-2.256-0.846
			c-0.721-0.361-1.363-0.822-1.927-1.387c-0.501-0.502-0.909-1.098-1.222-1.785c-0.313-0.69-0.47-1.505-0.47-2.445
			c0-1.253,0.329-2.326,0.987-3.219c0.658-0.893,1.457-1.574,2.397-2.045c-0.815-0.313-1.48-0.83-1.998-1.551
			c-0.517-0.721-0.775-1.535-0.775-2.443c0-1.065,0.297-1.99,0.893-2.773c0.595-0.783,1.347-1.395,2.256-1.833
			c-0.877-0.783-1.551-1.724-2.021-2.82c-0.47-1.097-0.705-2.209-0.705-3.337c0-1.316,0.204-2.428,0.611-3.337
			c0.407-0.908,0.955-1.723,1.645-2.444c0.814-0.846,1.793-1.504,2.938-1.974c1.143-0.47,2.514-0.705,4.112-0.705
			c1.128,0,2.139,0.126,3.032,0.376c0.893,0.252,1.699,0.596,2.42,1.034c0.407-1.065,1.041-1.888,1.903-2.468
			c0.861-0.579,1.856-0.869,2.984-0.869c0.188,0,0.384,0.008,0.588,0.023c0.203,0.016,0.399,0.039,0.587,0.07v3.243
			c-0.125-0.03-0.267-0.047-0.423-0.047c-0.157,0-0.314,0-0.47,0c-0.784,0-1.434,0.196-1.951,0.587
			c-0.517,0.393-0.838,0.917-0.963,1.574c0.501,0.628,0.885,1.34,1.151,2.139c0.266,0.799,0.4,1.732,0.4,2.797
			c0,1.128-0.196,2.178-0.588,3.148c-0.392,0.973-0.917,1.818-1.574,2.539c-0.784,0.846-1.763,1.527-2.938,2.044
			c-1.175,0.517-2.562,0.776-4.16,0.776c-0.815,0-1.497-0.048-2.044-0.142c-0.549-0.095-1.199-0.267-1.951-0.517
			c-0.501,0.156-0.963,0.422-1.386,0.799c-0.423,0.375-0.635,0.877-0.635,1.504c0,0.47,0.118,0.846,0.353,1.128
			c0.235,0.282,0.533,0.501,0.893,0.657c0.36,0.158,0.744,0.26,1.151,0.307s0.799,0.07,1.175,0.07h4.7
			c1.41,0,2.835,0.172,4.277,0.517c1.441,0.345,2.632,1.003,3.572,1.974c0.564,0.564,1.018,1.23,1.363,1.998
			C282.774,176.227,282.946,177.111,282.946,178.114z M279.045,178.114c0-0.878-0.196-1.567-0.587-2.067
			c-0.392-0.502-0.893-0.878-1.504-1.129c-0.611-0.251-1.285-0.406-2.021-0.47c-0.737-0.063-1.465-0.094-2.186-0.094h-5.499
			c-0.815,0.251-1.52,0.712-2.115,1.386s-0.893,1.465-0.893,2.374c0,1.003,0.329,1.833,0.987,2.491
			c0.376,0.376,0.822,0.674,1.339,0.893s1.058,0.384,1.622,0.494c0.564,0.109,1.135,0.18,1.715,0.211
			c0.58,0.031,1.136,0.047,1.668,0.047c0.501,0,1.05-0.016,1.645-0.047s1.19-0.109,1.786-0.234c0.595-0.126,1.159-0.299,1.692-0.518
			c0.533-0.219,0.987-0.517,1.363-0.893C278.716,179.9,279.045,179.085,279.045,178.114z M276.319,158.656
			c0-1.504-0.478-2.75-1.434-3.736c-0.956-0.987-2.279-1.48-3.971-1.48c-1.63,0-2.938,0.493-3.925,1.48
			c-0.987,0.986-1.48,2.232-1.48,3.736s0.478,2.766,1.434,3.783c0.956,1.02,2.28,1.527,3.972,1.527c1.629,0,2.938-0.508,3.924-1.527
			C275.826,161.422,276.319,160.16,276.319,158.656z"/>
		<path d="M302.78,174.59v-15.088c0-1.785-0.398-3.18-1.197-4.183s-2.139-1.504-4.02-1.504c-1.158,0-2.178,0.337-3.055,1.011
			c-0.877,0.674-1.582,1.559-2.115,2.655c-0.408,0.878-0.65,1.88-0.729,3.008c-0.079,1.128-0.117,2.146-0.117,3.056v11.045h-3.995
			v-23.783h3.478l0.329,3.572c0.313-0.688,0.736-1.292,1.269-1.809c0.533-0.518,1.128-0.947,1.786-1.293
			c0.658-0.344,1.348-0.611,2.068-0.799s1.41-0.282,2.068-0.282c2.725,0,4.777,0.769,6.156,2.304s2.068,3.682,2.068,6.438v15.651
			H302.78z"/>
		<path d="M348.838,158.985c0,0.752-0.047,1.56-0.141,2.421s-0.234,1.707-0.422,2.537c-0.189,0.831-0.432,1.615-0.729,2.351
			c-0.299,0.736-0.635,1.386-1.012,1.95l5.688,6.346h-5.076l-2.867-3.244c-1.191,1.348-2.625,2.327-4.301,2.938
			c-1.676,0.611-3.406,0.917-5.193,0.917c-1.441,0-2.797-0.22-4.064-0.657c-1.27-0.439-2.375-1.074-3.314-1.904
			s-1.684-1.84-2.232-3.031c-0.549-1.19-0.822-2.538-0.822-4.042c0-1.755,0.414-3.353,1.246-4.794
			c0.83-1.441,1.98-2.616,3.453-3.525c0.596-0.406,1.145-0.752,1.646-1.033c-0.533-0.596-1.043-1.176-1.529-1.74
			c-0.484-0.563-0.908-1.15-1.268-1.762c-0.361-0.611-0.643-1.262-0.846-1.951c-0.205-0.688-0.307-1.472-0.307-2.35
			c0-1.158,0.211-2.209,0.635-3.148c0.424-0.94,1.01-1.755,1.762-2.444c0.752-0.688,1.639-1.222,2.656-1.599
			c1.018-0.375,2.139-0.563,3.361-0.563c1.221,0,2.357,0.181,3.406,0.54c1.051,0.361,1.951,0.887,2.703,1.575
			c0.752,0.689,1.34,1.521,1.762,2.491c0.424,0.971,0.635,2.068,0.635,3.289c0,1.599-0.369,3.025-1.104,4.277
			c-0.736,1.254-1.795,2.287-3.174,3.102l-2.396,1.505l6.91,7.802c0.281-0.501,0.5-1.072,0.656-1.715
			c0.158-0.643,0.275-1.324,0.354-2.045s0.125-1.457,0.141-2.209s0.023-1.457,0.023-2.115v-1.598h7.191v3.431H348.838z
			 M333.141,158.891l-1.928,1.223c-0.908,0.627-1.613,1.402-2.115,2.326c-0.5,0.925-0.752,1.936-0.752,3.031
			c0,0.879,0.156,1.686,0.471,2.422c0.313,0.736,0.752,1.37,1.316,1.902c0.564,0.533,1.221,0.949,1.973,1.246
			c0.754,0.298,1.568,0.446,2.445,0.446c1.473,0,2.813-0.204,4.018-0.61c1.207-0.407,2.264-1.207,3.174-2.397L333.141,158.891z
			 M339.768,148.598c0-1.409-0.408-2.521-1.223-3.336s-1.973-1.223-3.477-1.223c-1.316,0-2.383,0.4-3.197,1.199
			s-1.221,1.841-1.221,3.125c0,0.658,0.117,1.277,0.352,1.856c0.234,0.58,0.541,1.128,0.916,1.646
			c0.377,0.517,0.791,1.003,1.246,1.457c0.453,0.454,0.885,0.916,1.293,1.387c0.721-0.377,1.4-0.752,2.043-1.129
			c0.643-0.375,1.207-0.799,1.693-1.269c0.484-0.47,0.869-1.003,1.15-1.599C339.627,150.119,339.768,149.414,339.768,148.598z"/>
		<path d="M369.141,145.355v-4.7h4.654v4.7H369.141z M369.424,174.59v-23.783h4.088v23.783H369.424z"/>
		<path d="M397.012,174.59v-15.088c0-1.785-0.398-3.18-1.197-4.183s-2.139-1.504-4.02-1.504c-1.158,0-2.178,0.337-3.055,1.011
			s-1.582,1.559-2.115,2.655c-0.406,0.878-0.65,1.88-0.729,3.008s-0.117,2.146-0.117,3.056v11.045h-3.994v-23.783h3.477l0.33,3.572
			c0.313-0.688,0.736-1.292,1.27-1.809c0.531-0.518,1.127-0.947,1.785-1.293c0.658-0.344,1.348-0.611,2.068-0.799
			s1.41-0.282,2.068-0.282c2.725,0,4.777,0.769,6.156,2.304s2.068,3.682,2.068,6.438v15.651H397.012z"/>
		<path d="M421.124,174.26c-0.533,0.158-1.184,0.307-1.951,0.447s-1.699,0.211-2.795,0.211c-1.285,0-2.352-0.188-3.197-0.563
			s-1.512-0.861-1.998-1.457c-0.484-0.595-0.83-1.276-1.033-2.044c-0.205-0.768-0.305-1.559-0.305-2.374v-14.241h-4.607v-3.432
			h4.607v-6.063l3.994-0.939v7.002h7.051v3.432h-7.051v13.771c0,1.159,0.258,1.99,0.775,2.49c0.518,0.502,1.324,0.752,2.42,0.752
			c0.439,0,0.895-0.016,1.363-0.047c0.471-0.031,0.908-0.078,1.316-0.141c0.471-0.063,0.939-0.141,1.41-0.234V174.26z"/>
		<path d="M445.61,161.43c0,0.439,0,0.869,0,1.292s-0.016,0.854-0.047,1.292h-16.826c0,1.098,0.203,2.186,0.611,3.268
			c0.406,1.08,0.971,1.981,1.691,2.702c1.129,1.128,2.584,1.692,4.371,1.692c1.941,0,3.414-0.518,4.418-1.551
			c0.344-0.346,0.627-0.705,0.846-1.082c0.219-0.375,0.406-0.877,0.564-1.504h3.9c-0.156,1.191-0.564,2.303-1.221,3.338
			c-0.658,1.033-1.475,1.879-2.445,2.537c-0.846,0.564-1.785,1.004-2.82,1.316c-1.033,0.313-2.115,0.47-3.242,0.47
			c-1.691,0-3.205-0.321-4.535-0.964c-1.332-0.641-2.453-1.511-3.361-2.607c-1.002-1.159-1.746-2.499-2.232-4.02
			c-0.486-1.52-0.729-3.125-0.729-4.816c0-1.441,0.141-2.797,0.424-4.066c0.281-1.269,0.752-2.451,1.41-3.549
			c0.846-1.44,2.035-2.631,3.572-3.571c1.533-0.94,3.336-1.41,5.404-1.41c1.535,0,2.906,0.274,4.111,0.823
			c1.207,0.548,2.248,1.292,3.127,2.232c0.939,1.033,1.676,2.256,2.209,3.666C445.342,158.327,445.61,159.832,445.61,161.43z
			 M441.52,160.584c0-0.909-0.125-1.787-0.375-2.633c-0.252-0.846-0.611-1.582-1.082-2.209c-0.502-0.658-1.145-1.182-1.926-1.574
			c-0.785-0.392-1.709-0.588-2.773-0.588c-1.098,0-2.045,0.205-2.844,0.611c-0.799,0.408-1.473,0.939-2.021,1.598
			s-0.955,1.402-1.221,2.232c-0.268,0.831-0.416,1.686-0.447,2.563H441.52z"/>
		<path d="M464.692,154.709c-0.346-0.063-0.713-0.109-1.105-0.142c-0.393-0.03-0.76-0.047-1.104-0.047
			c-0.941,0-1.795,0.181-2.563,0.54c-0.768,0.361-1.418,0.808-1.949,1.34c-0.471,0.47-0.855,1.01-1.152,1.621
			c-0.299,0.611-0.518,1.262-0.658,1.951s-0.234,1.379-0.281,2.068s-0.07,1.347-0.07,1.973v10.576h-3.949v-23.783h3.525l0.328,4.184
			c0.627-1.473,1.59-2.562,2.891-3.267c1.301-0.704,2.703-1.058,4.207-1.058c0.627,0,1.254,0.047,1.881,0.141V154.709z"/>
		<path d="M489.366,174.354c-0.439,0.22-0.861,0.368-1.268,0.446c-0.408,0.078-0.863,0.117-1.363,0.117
			c-1.066,0-1.904-0.352-2.516-1.057s-0.916-1.559-0.916-2.563h-0.094c-0.689,1.191-1.715,2.139-3.078,2.844
			s-2.891,1.058-4.582,1.058c-1.381,0-2.578-0.212-3.596-0.634c-1.02-0.424-1.865-0.979-2.539-1.669
			c-0.674-0.688-1.184-1.473-1.527-2.351c-0.346-0.877-0.518-1.77-0.518-2.679c0-0.752,0.133-1.551,0.4-2.397
			c0.266-0.846,0.729-1.621,1.387-2.326s1.527-1.308,2.607-1.809c1.082-0.502,2.438-0.8,4.066-0.894l7.238-0.423v-1.739
			c0-0.595-0.07-1.222-0.213-1.88c-0.141-0.658-0.477-1.237-1.01-1.739c-0.408-0.376-0.916-0.673-1.527-0.893
			s-1.402-0.329-2.373-0.329c-1.098,0-1.99,0.134-2.68,0.399c-0.689,0.267-1.238,0.604-1.645,1.011
			c-0.783,0.783-1.176,1.738-1.176,2.867h-3.9c0.031-1.097,0.227-2.045,0.588-2.844c0.359-0.799,0.854-1.512,1.48-2.139
			c0.814-0.846,1.871-1.48,3.172-1.903s2.688-0.635,4.16-0.635c2.318,0,4.15,0.431,5.498,1.292c1.348,0.863,2.303,1.951,2.867,3.268
			c0.471,1.097,0.705,2.318,0.705,3.666v11.515c0,0.627,0.117,1.05,0.354,1.269c0.234,0.22,0.555,0.329,0.963,0.329
			c0.094,0,0.203,0,0.328,0s0.236-0.015,0.33-0.047l0.375-0.094V174.354z M483.069,163.121l-6.393,0.377
			c-0.596,0.031-1.207,0.133-1.832,0.305c-0.629,0.173-1.191,0.424-1.693,0.752c-0.502,0.329-0.908,0.76-1.221,1.293
			c-0.314,0.533-0.471,1.175-0.471,1.927c0,1.065,0.359,2.014,1.08,2.843c0.721,0.831,1.928,1.246,3.619,1.246
			c0.908,0,1.795-0.156,2.656-0.47s1.605-0.8,2.232-1.457c0.721-0.721,1.238-1.552,1.551-2.491s0.471-1.91,0.471-2.914V163.121z"/>
		<path d="M513.711,166.6c-0.094,1.285-0.375,2.413-0.846,3.384c-0.469,0.972-1.111,1.849-1.926,2.632
			c-0.848,0.815-1.834,1.449-2.961,1.904c-1.129,0.453-2.43,0.681-3.902,0.681c-2.162,0-3.939-0.431-5.334-1.292
			s-2.514-1.92-3.361-3.173c-0.627-0.94-1.111-2.067-1.457-3.384c-0.344-1.316-0.516-2.867-0.516-4.653s0.172-3.337,0.516-4.653
			c0.346-1.315,0.83-2.443,1.457-3.384c0.848-1.253,1.967-2.31,3.361-3.173c1.395-0.861,3.156-1.292,5.287-1.292
			c1.41,0,2.688,0.22,3.83,0.658c1.145,0.438,2.123,1.065,2.938,1.88c0.814,0.783,1.465,1.668,1.951,2.655s0.775,2.139,0.869,3.454
			h-4.041c-0.094-0.814-0.291-1.527-0.588-2.138c-0.299-0.611-0.666-1.136-1.105-1.575c-0.469-0.438-1.033-0.791-1.691-1.057
			s-1.379-0.4-2.162-0.4c-0.908,0-1.691,0.149-2.35,0.447s-1.254,0.666-1.785,1.104c-0.941,0.815-1.576,1.896-1.904,3.243
			c-0.33,1.348-0.494,2.758-0.494,4.229c0,1.474,0.164,2.884,0.494,4.229c0.328,1.348,0.963,2.43,1.904,3.244
			c0.531,0.438,1.127,0.807,1.785,1.104c0.658,0.299,1.441,0.447,2.35,0.447c0.814,0,1.574-0.141,2.279-0.424
			c0.705-0.281,1.293-0.673,1.764-1.174c0.438-0.439,0.791-0.94,1.057-1.505c0.266-0.563,0.447-1.237,0.541-2.021H513.711z"/>
		<path d="M532.088,174.26c-0.533,0.158-1.184,0.307-1.951,0.447s-1.699,0.211-2.795,0.211c-1.285,0-2.352-0.188-3.197-0.563
			s-1.512-0.861-1.998-1.457c-0.484-0.595-0.83-1.276-1.033-2.044c-0.205-0.768-0.305-1.559-0.305-2.374v-14.241h-4.607v-3.432
			h4.607v-6.063l3.994-0.939v7.002h7.051v3.432h-7.051v13.771c0,1.159,0.258,1.99,0.775,2.49c0.518,0.502,1.324,0.752,2.42,0.752
			c0.439,0,0.895-0.016,1.363-0.047c0.471-0.031,0.908-0.078,1.316-0.141c0.471-0.063,0.939-0.141,1.41-0.234V174.26z"/>
		<path d="M537.118,145.355v-4.7h4.652v4.7H537.118z M537.399,174.59v-23.783h4.09v23.783H537.399z"/>
		<path d="M569.079,162.698c0,1.88-0.236,3.651-0.705,5.312c-0.471,1.66-1.363,3.133-2.68,4.418c-0.877,0.846-1.92,1.52-3.125,2.021
			c-1.207,0.501-2.563,0.752-4.066,0.752s-2.859-0.251-4.064-0.752c-1.207-0.501-2.25-1.175-3.127-2.021
			c-1.314-1.285-2.209-2.758-2.678-4.418c-0.471-1.66-0.705-3.432-0.705-5.312s0.234-3.649,0.705-5.312
			c0.469-1.66,1.363-3.133,2.678-4.418c0.877-0.846,1.92-1.52,3.127-2.021c1.205-0.501,2.561-0.752,4.064-0.752
			s2.859,0.251,4.066,0.752c1.205,0.501,2.248,1.175,3.125,2.021c1.316,1.285,2.209,2.758,2.68,4.418
			C568.842,159.049,569.079,160.818,569.079,162.698z M564.989,162.698c0-1.409-0.158-2.772-0.471-4.089s-0.893-2.412-1.738-3.29
			c-0.502-0.501-1.105-0.908-1.811-1.222c-0.703-0.313-1.527-0.471-2.467-0.471s-1.762,0.158-2.467,0.471
			c-0.705,0.313-1.309,0.721-1.811,1.222c-0.846,0.878-1.426,1.974-1.738,3.29c-0.314,1.316-0.471,2.68-0.471,4.089
			c0,1.41,0.156,2.772,0.471,4.089c0.313,1.316,0.893,2.414,1.738,3.29c0.502,0.502,1.105,0.909,1.811,1.222
			c0.705,0.314,1.527,0.471,2.467,0.471s1.764-0.156,2.467-0.471c0.705-0.313,1.309-0.72,1.811-1.222
			c0.846-0.876,1.426-1.974,1.738-3.29S564.989,164.108,564.989,162.698z"/>
		<path d="M590.743,174.59v-15.088c0-1.785-0.398-3.18-1.197-4.183s-2.139-1.504-4.02-1.504c-1.158,0-2.178,0.337-3.055,1.011
			s-1.582,1.559-2.115,2.655c-0.406,0.878-0.65,1.88-0.729,3.008s-0.117,2.146-0.117,3.056v11.045h-3.994v-23.783h3.477l0.33,3.572
			c0.313-0.688,0.736-1.292,1.27-1.809c0.531-0.518,1.127-0.947,1.785-1.293c0.658-0.344,1.348-0.611,2.068-0.799
			s1.41-0.282,2.068-0.282c2.725,0,4.777,0.769,6.156,2.304s2.068,3.682,2.068,6.438v15.651H590.743z"/>
	</g>
</g>
</svg>
