<?xml version="1.0" encoding="utf-8"?>
<!-- Generator: Adobe Illustrator 14.0.0, SVG Export Plug-In . SVG Version: 6.00 Build 43363)  -->
<!DOCTYPE svg PUBLIC "-//W3C//DTD SVG 1.1//EN" "http://www.w3.org/Graphics/SVG/1.1/DTD/svg11.dtd">
<svg version="1.1" id="Layer_1" xmlns="http://www.w3.org/2000/svg" xmlns:xlink="http://www.w3.org/1999/xlink" x="0px" y="0px"
	 width="314.559px" height="118.231px" viewBox="0 0 314.559 118.231" enable-background="new 0 0 314.559 118.231"
	 xml:space="preserve">
<g>
	<g>
		<path fill="#5A87C6" d="M306.895,110.243c1.174,0,2.919,0.193,2.919-1.506c0-1.307-1.064-1.46-2.093-1.46h-2.387v2.966H306.895z
			 M310.828,114.909h-1.229l-2.396-3.862h-1.869v3.862h-1.035v-8.368h3.655c2.217,0,2.974,0.829,2.974,2.22
			c0,1.637-1.152,2.25-2.636,2.286L310.828,114.909z M313.376,110.722c0-3.645-2.65-6.489-6.287-6.489
			c-3.656,0-6.328,2.845-6.328,6.489c0,3.678,2.672,6.521,6.328,6.521C310.726,117.242,313.376,114.399,313.376,110.722
			 M299.569,110.722c0-4.115,3.369-7.479,7.52-7.479c4.133,0,7.47,3.364,7.47,7.479c0,4.14-3.337,7.51-7.47,7.51
			C302.938,118.231,299.569,114.861,299.569,110.722"/>
	</g>
	<rect fill="#5A87C6" width="57.106" height="8.16"/>
	<polygon fill="#5A87C6" points="0,15.574 57.106,15.574 57.106,23.732 0,23.742 	"/>
	<rect x="16.308" y="31.137" fill="#5A87C6" width="24.49" height="8.184"/>
	<rect x="16.308" y="46.716" fill="#5A87C6" width="24.49" height="8.135"/>
	<rect x="16.308" y="62.298" fill="#5A87C6" width="24.49" height="8.143"/>
	<rect x="16.308" y="77.875" fill="#5A87C6" width="24.49" height="8.156"/>
	<rect y="93.448" fill="#5A87C6" width="57.106" height="8.165"/>
	<rect y="109.007" fill="#5A87C6" width="57.106" height="8.16"/>
	<g>
		<path fill="#5A87C6" d="M65.233,15.574h88.017c0.757,1.343,2.464,6.428,2.681,8.158H65.233V15.574z"/>
	</g>
	<rect x="81.582" y="31.137" fill="#5A87C6" width="24.442" height="8.184"/>
	<g>
		<path fill="#5A87C6" d="M130.491,31.137h26.097c0.084,1.712-0.712,6.549-1.359,8.184h-24.737V31.137z"/>
		<path fill="#5A87C6" d="M81.581,62.298h62.861c2.04,1.415,5.803,6.059,7.317,8.127H81.581V62.298z"/>
	</g>
	<rect x="81.582" y="77.875" fill="#5A87C6" width="24.442" height="8.156"/>
	<g>
		<path fill="#5A87C6" d="M130.491,77.875h24.837c0.548,1.141,1.477,6.564,1.413,8.157h-26.25V77.875z"/>
		<path fill="#5A87C6" d="M65.233,93.449h90.48c-0.13,1.87-1.861,6.982-2.68,8.165H65.233V93.449z"/>
		<path fill="#5A87C6" d="M65.233,109.007h81.806c-7.247,6.074-13.644,8.159-24.876,8.159h-8.098H65.233V109.007z"/>
	</g>
	<polygon fill="#5A87C6" points="179.438,46.716 225.815,46.716 228.396,54.024 230.984,46.716 277.329,46.716 277.329,54.851 
		252.861,54.851 252.861,48.267 250.528,54.851 206.246,54.851 203.914,48.267 203.914,54.851 179.438,54.851 	"/>
	<rect x="179.438" y="62.298" fill="#5A87C6" width="24.476" height="8.143"/>
	<rect x="179.438" y="77.875" fill="#5A87C6" width="24.476" height="8.156"/>
	<rect x="163.139" y="93.448" fill="#5A87C6" width="40.775" height="8.144"/>
	<rect x="163.139" y="109.007" fill="#5A87C6" width="40.775" height="8.16"/>
	<polygon fill="#5A87C6" points="247.625,0 293.646,0 293.646,8.16 244.705,8.16 	"/>
	<polygon fill="#5A87C6" points="242.077,15.574 293.646,15.574 293.646,23.732 239.165,23.732 	"/>
	<polygon fill="#5A87C6" points="236.562,31.137 277.329,31.137 277.329,39.32 233.642,39.32 	"/>
	<rect x="252.862" y="62.298" fill="#5A87C6" width="24.468" height="8.143"/>
	<rect x="252.862" y="77.875" fill="#5A87C6" width="24.468" height="8.156"/>
	<rect x="252.862" y="93.448" fill="#5A87C6" width="40.783" height="8.144"/>
	<rect x="252.862" y="109.007" fill="#5A87C6" width="40.783" height="8.16"/>
	<polygon fill="#5A87C6" points="208.843,62.298 247.948,62.298 245.137,70.441 211.679,70.441 	"/>
	<polygon fill="#5A87C6" points="214.25,77.875 242.557,77.875 239.69,86.032 217.109,86.032 	"/>
	<polygon fill="#5A87C6" points="219.72,93.449 237.103,93.449 234.275,101.592 222.563,101.592 	"/>
	<polygon fill="#5A87C6" points="225.175,109.007 231.679,109.007 228.836,117.166 228.001,117.166 	"/>
	<g>
		<path fill="#5A87C6" d="M81.581,54.867h62.861c2.04-1.415,5.803-6.041,7.317-8.129H81.581V54.867z"/>
	</g>
	<polygon fill="#5A87C6" points="209.19,0 163.169,0 163.169,8.16 212.103,8.16 	"/>
	<polygon fill="#5A87C6" points="214.736,15.574 163.168,15.574 163.168,23.732 217.65,23.732 	"/>
	<polygon fill="#5A87C6" points="220.254,31.137 179.485,31.137 179.485,39.32 223.166,39.32 	"/>
	<g>
		<path fill="#5A87C6" d="M65.233,8.159h81.806C139.792,2.086,133.396,0,122.163,0h-8.098H65.233V8.159z"/>
	</g>
</g>
</svg>
