<?xml version="1.0" encoding="utf-8"?>
<!-- Generator: Adobe Illustrator 14.0.0, SVG Export Plug-In . SVG Version: 6.00 Build 43363)  -->
<!DOCTYPE svg PUBLIC "-//W3C//DTD SVG 1.1//EN" "http://www.w3.org/Graphics/SVG/1.1/DTD/svg11.dtd">
<svg version="1.1" id="Layer_1" xmlns="http://www.w3.org/2000/svg" xmlns:xlink="http://www.w3.org/1999/xlink" x="0px" y="0px"
	 width="64px" height="43px" viewBox="0 0 64 43" enable-background="new 0 0 64 43" xml:space="preserve">
<g>
	<path fill="#0071C5" d="M30.452,37.502C18.198,38.634,5.43,36.854,3.642,27.279c-0.875-4.72,1.277-9.725,4.13-12.833v-1.662
		C2.635,17.29-0.151,22.99,1.453,29.727c2.049,8.639,13.006,13.531,29.735,11.906c6.618-0.643,15.278-2.773,21.304-6.078v-4.696
		C47.024,34.113,37.983,36.804,30.452,37.502z M62.726,12.672C59.817-1.517,32.271-2.416,14.515,8.394v1.193
		C32.251,0.47,57.407,0.524,59.7,13.594c0.766,4.321-1.668,8.828-6.018,11.418V28.4C58.917,26.482,64.286,20.274,62.726,12.672z"/>
	<path fill="#0071C5" d="M51.499,10.606h-3.213v14.302c0,1.68,0.814,3.137,3.213,3.368V10.606z"/>
	<path fill="#0071C5" d="M13.251,15.828h-3.217l-0.002,9.347c0,1.679,0.815,3.139,3.219,3.369V15.828z"/>
	<rect x="10.034" y="11.04" fill="#0071C5" width="3.208" height="3.047"/>
	<path fill="#0071C5" d="M32.489,28.395c-2.598,0-3.7-1.807-3.7-3.59V12.398h3.185v3.43h2.396v2.571h-2.396v6.207
		c0,0.729,0.346,1.134,1.104,1.134h1.293v2.654H32.489"/>
	<path fill="#0071C5" d="M38.351,23.104c0,1.63,1.014,2.827,2.822,2.827c1.408,0,2.107-0.389,2.922-1.197l1.967,1.877
		c-1.26,1.246-2.582,2.002-4.912,2.002c-3.051,0-5.973-1.664-5.973-6.513c0-4.143,2.551-6.486,5.9-6.486
		c3.396,0,5.355,2.744,5.355,6.342v1.148H38.351 M40.938,18.25c-1.09,0-1.932,0.56-2.283,1.319
		c-0.209,0.455-0.281,0.806-0.305,1.365h4.902C43.19,19.569,42.571,18.25,40.938,18.25z"/>
	<path fill="#0071C5" d="M21.901,18.399c0.934,0,1.322,0.462,1.322,1.211v8.802h3.184v-8.817c0-1.789-0.954-3.761-3.749-3.761
		l-6.579-0.006v12.584h3.186V18.399H21.901z"/>
	<g>
		<path fill="#0071C5" d="M54.958,13.163c-0.709,0-1.275-0.574-1.275-1.278s0.566-1.278,1.275-1.278
			c0.705,0,1.283,0.574,1.283,1.278S55.663,13.163,54.958,13.163z M54.958,10.819c-0.584,0-1.055,0.48-1.055,1.065
			c0,0.583,0.471,1.058,1.055,1.058s1.063-0.475,1.063-1.058C56.021,11.3,55.542,10.819,54.958,10.819z M55.524,12.649h-0.238
			c-0.021,0-0.041-0.014-0.049-0.033l-0.326-0.549c-0.004-0.012-0.033-0.024-0.045-0.024c0,0-0.051,0-0.092,0
			c-0.021,0-0.045,0-0.053,0v0.546c0,0.027-0.021,0.061-0.059,0.061H54.45c-0.029,0-0.055-0.033-0.055-0.061v-1.381
			c0-0.079,0.029-0.113,0.1-0.123c0.074-0.01,0.279-0.017,0.393-0.017c0.395,0,0.633,0.116,0.633,0.487v0.025
			c0,0.23-0.113,0.352-0.291,0.41l0.336,0.57c0.004,0.01,0.01,0.027,0.01,0.039C55.575,12.623,55.562,12.649,55.524,12.649z
			 M55.212,11.556c0-0.155-0.092-0.205-0.301-0.205c-0.023,0-0.094,0-0.145,0c-0.025,0-0.045,0-0.055,0v0.439
			c0.029,0,0.176,0.006,0.199,0.006c0.209,0,0.301-0.068,0.301-0.215V11.556z"/>
	</g>
</g>
</svg>
